<mxfile host="app.diagrams.net" modified="2024-04-19T06:06:31.661Z" agent="Mozilla/5.0 (Windows NT 10.0; Win64; x64) AppleWebKit/537.36 (KHTML, like Gecko) Chrome/123.0.0.0 Safari/537.36 Edg/123.0.0.0" etag="bCt3kg_-qo7gIG_WUipE" version="24.2.5" type="github">
  <diagram name="第 1 页" id="Ng7ClqAJyXNO9tm5_SyX">
    <mxGraphModel dx="2295" dy="857" grid="1" gridSize="10" guides="1" tooltips="1" connect="1" arrows="1" fold="1" page="1" pageScale="1" pageWidth="827" pageHeight="1169" math="0" shadow="0">
      <root>
        <mxCell id="0" />
        <mxCell id="1" parent="0" />
        <mxCell id="PRoUlpW756x2f0xIoc_f-34" value="" style="edgeStyle=orthogonalEdgeStyle;rounded=0;orthogonalLoop=1;jettySize=auto;html=1;" edge="1" parent="1" source="PRoUlpW756x2f0xIoc_f-1" target="PRoUlpW756x2f0xIoc_f-13">
          <mxGeometry relative="1" as="geometry" />
        </mxCell>
        <mxCell id="PRoUlpW756x2f0xIoc_f-1" value="Every &lt;font color=&quot;#ff0000&quot;&gt;&lt;b&gt;Tuesday 11:00AM CST&lt;/b&gt;&lt;/font&gt;" style="rounded=1;whiteSpace=wrap;html=1;" vertex="1" parent="1">
          <mxGeometry x="240" y="420" width="180" height="40" as="geometry" />
        </mxCell>
        <mxCell id="PRoUlpW756x2f0xIoc_f-5" value="" style="edgeStyle=orthogonalEdgeStyle;rounded=0;orthogonalLoop=1;jettySize=auto;html=1;" edge="1" parent="1" source="PRoUlpW756x2f0xIoc_f-2" target="PRoUlpW756x2f0xIoc_f-1">
          <mxGeometry relative="1" as="geometry" />
        </mxCell>
        <mxCell id="PRoUlpW756x2f0xIoc_f-2" value="&lt;div&gt;Feature owners&lt;/div&gt;Register parts that need partial update in OneNote page" style="rounded=0;whiteSpace=wrap;html=1;dashed=1;" vertex="1" parent="1">
          <mxGeometry x="200" y="310" width="260" height="60" as="geometry" />
        </mxCell>
        <mxCell id="PRoUlpW756x2f0xIoc_f-19" value="" style="edgeStyle=orthogonalEdgeStyle;rounded=0;orthogonalLoop=1;jettySize=auto;html=1;" edge="1" parent="1" source="PRoUlpW756x2f0xIoc_f-13" target="PRoUlpW756x2f0xIoc_f-18">
          <mxGeometry relative="1" as="geometry" />
        </mxCell>
        <mxCell id="PRoUlpW756x2f0xIoc_f-13" value="Start a new PU&lt;div&gt;&lt;/div&gt;&lt;div&gt;using registered parts&lt;/div&gt;" style="rounded=0;whiteSpace=wrap;html=1;" vertex="1" parent="1">
          <mxGeometry x="260" y="510" width="140" height="40" as="geometry" />
        </mxCell>
        <mxCell id="PRoUlpW756x2f0xIoc_f-21" value="" style="edgeStyle=orthogonalEdgeStyle;rounded=0;orthogonalLoop=1;jettySize=auto;html=1;" edge="1" parent="1" source="PRoUlpW756x2f0xIoc_f-18" target="PRoUlpW756x2f0xIoc_f-20">
          <mxGeometry relative="1" as="geometry" />
        </mxCell>
        <mxCell id="PRoUlpW756x2f0xIoc_f-35" style="edgeStyle=orthogonalEdgeStyle;rounded=0;orthogonalLoop=1;jettySize=auto;html=1;exitX=1;exitY=0.5;exitDx=0;exitDy=0;entryX=0.5;entryY=0;entryDx=0;entryDy=0;dashed=1;endArrow=classic;endFill=1;" edge="1" parent="1" source="PRoUlpW756x2f0xIoc_f-18">
          <mxGeometry relative="1" as="geometry">
            <mxPoint x="882.5" y="660" as="targetPoint" />
          </mxGeometry>
        </mxCell>
        <mxCell id="PRoUlpW756x2f0xIoc_f-18" value="A new PU release notification will be posted in the Teams channel&lt;br&gt;Wallet component release" style="rounded=0;whiteSpace=wrap;html=1;" vertex="1" parent="1">
          <mxGeometry x="220" y="590" width="220" height="60" as="geometry" />
        </mxCell>
        <mxCell id="PRoUlpW756x2f0xIoc_f-38" value="" style="edgeStyle=orthogonalEdgeStyle;rounded=0;orthogonalLoop=1;jettySize=auto;html=1;" edge="1" parent="1" source="PRoUlpW756x2f0xIoc_f-20" target="PRoUlpW756x2f0xIoc_f-37">
          <mxGeometry relative="1" as="geometry" />
        </mxCell>
        <mxCell id="PRoUlpW756x2f0xIoc_f-20" value="Release master notify feature owners to do BVT&lt;br&gt;in comment of the notification&amp;nbsp;&lt;br&gt;&lt;div&gt;&lt;/div&gt;" style="rounded=0;whiteSpace=wrap;html=1;" vertex="1" parent="1">
          <mxGeometry x="240" y="690" width="180" height="60" as="geometry" />
        </mxCell>
        <mxCell id="PRoUlpW756x2f0xIoc_f-23" value="Please verify below with your parts. @A / @B / @C" style="shape=note;whiteSpace=wrap;html=1;backgroundOutline=1;darkOpacity=0.05;size=14;align=left;spacing=8;" vertex="1" parent="1">
          <mxGeometry x="460" y="680" width="180" height="80" as="geometry" />
        </mxCell>
        <mxCell id="PRoUlpW756x2f0xIoc_f-24" style="edgeStyle=orthogonalEdgeStyle;rounded=0;orthogonalLoop=1;jettySize=auto;html=1;entryX=0;entryY=0.5;entryDx=0;entryDy=0;entryPerimeter=0;endArrow=none;endFill=0;" edge="1" parent="1" source="PRoUlpW756x2f0xIoc_f-20" target="PRoUlpW756x2f0xIoc_f-23">
          <mxGeometry relative="1" as="geometry" />
        </mxCell>
        <mxCell id="PRoUlpW756x2f0xIoc_f-29" value="" style="edgeStyle=orthogonalEdgeStyle;rounded=0;orthogonalLoop=1;jettySize=auto;html=1;" edge="1" parent="1" source="PRoUlpW756x2f0xIoc_f-26" target="PRoUlpW756x2f0xIoc_f-28">
          <mxGeometry relative="1" as="geometry" />
        </mxCell>
        <mxCell id="PRoUlpW756x2f0xIoc_f-30" value="Yes" style="edgeLabel;html=1;align=center;verticalAlign=middle;resizable=0;points=[];" vertex="1" connectable="0" parent="PRoUlpW756x2f0xIoc_f-29">
          <mxGeometry x="-0.155" y="-3" relative="1" as="geometry">
            <mxPoint as="offset" />
          </mxGeometry>
        </mxCell>
        <mxCell id="PRoUlpW756x2f0xIoc_f-44" value="" style="edgeStyle=orthogonalEdgeStyle;rounded=0;orthogonalLoop=1;jettySize=auto;html=1;" edge="1" parent="1" source="PRoUlpW756x2f0xIoc_f-26" target="PRoUlpW756x2f0xIoc_f-42">
          <mxGeometry relative="1" as="geometry" />
        </mxCell>
        <mxCell id="PRoUlpW756x2f0xIoc_f-46" value="No" style="edgeLabel;html=1;align=center;verticalAlign=middle;resizable=0;points=[];" vertex="1" connectable="0" parent="PRoUlpW756x2f0xIoc_f-44">
          <mxGeometry x="-0.1296" y="-1" relative="1" as="geometry">
            <mxPoint as="offset" />
          </mxGeometry>
        </mxCell>
        <mxCell id="PRoUlpW756x2f0xIoc_f-26" value="All parts verified?" style="rhombus;whiteSpace=wrap;html=1;" vertex="1" parent="1">
          <mxGeometry x="240" y="880" width="180" height="40" as="geometry" />
        </mxCell>
        <mxCell id="PRoUlpW756x2f0xIoc_f-33" value="" style="edgeStyle=orthogonalEdgeStyle;rounded=0;orthogonalLoop=1;jettySize=auto;html=1;" edge="1" parent="1" source="PRoUlpW756x2f0xIoc_f-28" target="PRoUlpW756x2f0xIoc_f-32">
          <mxGeometry relative="1" as="geometry" />
        </mxCell>
        <mxCell id="PRoUlpW756x2f0xIoc_f-28" value="Release master send approval request mail&lt;div&gt;with the notification snapshot&lt;/div&gt;" style="whiteSpace=wrap;html=1;" vertex="1" parent="1">
          <mxGeometry x="230" y="980" width="200" height="56.28" as="geometry" />
        </mxCell>
        <mxCell id="PRoUlpW756x2f0xIoc_f-32" value="Ship" style="rounded=1;whiteSpace=wrap;html=1;" vertex="1" parent="1">
          <mxGeometry x="270" y="1070" width="120" height="40" as="geometry" />
        </mxCell>
        <mxCell id="PRoUlpW756x2f0xIoc_f-39" value="" style="edgeStyle=orthogonalEdgeStyle;rounded=0;orthogonalLoop=1;jettySize=auto;html=1;" edge="1" parent="1" source="PRoUlpW756x2f0xIoc_f-37" target="PRoUlpW756x2f0xIoc_f-26">
          <mxGeometry relative="1" as="geometry" />
        </mxCell>
        <mxCell id="PRoUlpW756x2f0xIoc_f-37" value="Parts owner reply with verify result by &lt;b&gt;&lt;font color=&quot;#ff0000&quot;&gt;end of Wednesday 14:00PM CST&lt;/font&gt;&lt;/b&gt;&lt;div&gt;&lt;/div&gt;" style="rounded=0;whiteSpace=wrap;html=1;" vertex="1" parent="1">
          <mxGeometry x="230" y="790" width="200" height="50" as="geometry" />
        </mxCell>
        <mxCell id="PRoUlpW756x2f0xIoc_f-40" style="edgeStyle=orthogonalEdgeStyle;rounded=0;orthogonalLoop=1;jettySize=auto;html=1;exitX=1;exitY=0.5;exitDx=0;exitDy=0;dashed=1;entryX=-0.011;entryY=0.954;entryDx=0;entryDy=0;entryPerimeter=0;" edge="1" parent="1" source="PRoUlpW756x2f0xIoc_f-37" target="PRoUlpW756x2f0xIoc_f-47">
          <mxGeometry relative="1" as="geometry">
            <mxPoint x="640" y="1040" as="targetPoint" />
            <Array as="points">
              <mxPoint x="510" y="815" />
              <mxPoint x="510" y="1040" />
              <mxPoint x="700" y="1040" />
              <mxPoint x="700" y="1041" />
            </Array>
          </mxGeometry>
        </mxCell>
        <mxCell id="PRoUlpW756x2f0xIoc_f-41" style="edgeStyle=orthogonalEdgeStyle;rounded=0;orthogonalLoop=1;jettySize=auto;html=1;entryX=-0.001;entryY=0.842;entryDx=0;entryDy=0;entryPerimeter=0;exitX=0;exitY=0;exitDx=180;exitDy=47;exitPerimeter=0;dashed=1;" edge="1" parent="1" source="PRoUlpW756x2f0xIoc_f-23" target="PRoUlpW756x2f0xIoc_f-47">
          <mxGeometry relative="1" as="geometry">
            <mxPoint x="711.0350000000003" y="961.8105" as="targetPoint" />
          </mxGeometry>
        </mxCell>
        <mxCell id="PRoUlpW756x2f0xIoc_f-45" style="edgeStyle=orthogonalEdgeStyle;rounded=0;orthogonalLoop=1;jettySize=auto;html=1;exitX=0.5;exitY=1;exitDx=0;exitDy=0;entryX=0;entryY=0.5;entryDx=0;entryDy=0;" edge="1" parent="1" source="PRoUlpW756x2f0xIoc_f-42" target="PRoUlpW756x2f0xIoc_f-28">
          <mxGeometry relative="1" as="geometry" />
        </mxCell>
        <mxCell id="PRoUlpW756x2f0xIoc_f-42" value="Release master use the same CI to start a new PU and excludes the failed parts&lt;div&gt;&lt;/div&gt;" style="rounded=0;whiteSpace=wrap;html=1;" vertex="1" parent="1">
          <mxGeometry x="-50" y="875" width="200" height="50" as="geometry" />
        </mxCell>
        <mxCell id="PRoUlpW756x2f0xIoc_f-47" value="" style="shape=image;verticalLabelPosition=bottom;labelBackgroundColor=default;verticalAlign=top;aspect=fixed;imageAspect=0;image=data:image/png,iVBORw0KGgoAAAANSUhEUgAAAm8AAALWCAYAAAAQ83Q1AAAgAElEQVR4Aey967dlVXnuu/+C8+V8Pi2ntZN99tme7NiyzzbJTmKImijRBKMoGhUMisrNC4ICSlAUEfAWDIJGEjcIityR+7XkDlUFFFVAUUABBdSFgiqqiqLuzH7ab1Q9k3f21ceYlzXXmnOu9YzW1hpjjtH729/+67dn9tHHmP9p165dKf7t3Lkzbdu2LW3cuDG99tpryZsJmIAJmIAJmIAJmMD4EPhPUbhxvH379rR58+ZKvI2Pm/bEBEzABEzABEzABEwAAlPEG7Nur7zySiXijMgETMAETMAETMAETGC8CEwRb1u3bk3r1q1LrVZrvDy1NyZgAiZgAiZgAiZgAp0zbzt27EiIt9WrVxuNCZiACZiACZiACZjAGBLomHlDvPGQwosvvjiGrtolEzABEzABEzABEzABizfXARMwARMwARMwAROYIAIWbxNUWHbVBEzABEzABEzABCzeXAdMwARMwARMwARMYIIIWLxNUGHZVRMwARMwARMwAROweHMdMAETMAETMAETMIEJImDxNkGFZVdNwARMwARMwARMwOLNdcAETMAETMAETMAEJoiAxdsEFZZdNQETMAETMAETMAGLN9cBEzABEzABEzABE5ggAhZvE1RYdtUETMAETMAETMAELN5cB0zABEzABEzABExggghYvE1QYdlVEzABEzABEzABE7B4cx0wARMwARMwARMwgQkiYPE2QYVlV03ABEzABEzABEzA4s11wARMwARMwARMwAQmiMDYircnVmxJty94adp/ixZvTKvXbJugIrGrJmACJmACJmACJlBPYCzF27+dtzIdfOj9Q/274qoX6yn4igmYgAmYgAmYgAlMCIGxE2+IrGELN9mzgJuQWmk3TcAETMAETMAEagmMlXh7+eUdMybcJOBIw5sJmIAJmIAJmIAJTCqBsRJvMznrJvHm2bdJrar22wRMwARMwARMAAJjI95mY9ZNAs6zb678JmACJmACJmACk0pgbMTbaWc8PuO3TCXeSMubCZiACZiACZiACUwigbEQb48v3zxrwk0C7s671k9iedlnEzABEzABEzCBeU5gLMTbMV95eFri7dOfW5S+/6On0sNLtqRt21pp166UVjy5LZ37b8+lw496sGibNH37dJ7XfmffBEzABEzABCaQwMjF23QfUkC4XXb5mrRp8560Zs32tHTZ5rTkkU3puVXb0mtb96TbF7ySjvrCQ0UB54cXJrDG2mUTMAETMAETmOcERirehvGQwg/Pejpt3rwnLX5wUzrtjCfSpz+3OP3TYQvT17/xWLr19pcrAXfJZauL4o1bqJ59m7kW8MADD6RLL710Wgk8/fTT6eSTT07btvX2Kxmkd8wxx/QcflrOObIJmIAJmIAJjIDASMXbdGfdEF9Ll21NL67enk49bXk65FOdv8pwzHFL0hMrXkuvvro7HXb44qKA8+zbzNU6hNR+++2XEGBsiLnf//3f7+mPsGyrV69Ohx12WDrzzDOrz93+TZJ4I0+95At+cIQd+ePvwAMPTBs3buyGw9dNwARMwATmIIGRibdhzLoh3nbsbKUlSzelT31m0RRxhpi78aaX0u49rfT1k5dNua6HF6Yz+8aMEDM9dYMpAyzXGHB73TRYS8AMYqMurW4Df7frdXbrzvcqUIhPWARKLmjEoxeGhOk286YyqwuHDfwQ/5g3CdDStRiul+Ne2CjvMb1hl1EvvjqMCZiACZjA+BAYmXgb1qtBtm9vpUeWbq5ul0qMaY94u/nW9WnPnlY68aR68TbdV4eUBlgVcS9iQmG1z+1NsnjL80Ie8/woTJ0AJo44MhNHuF5n8JoEWpwVFHv2EpGkmW/DFE69iLdSeqVzuZ/+bAImYAImMHcJjES88ZoOCazp7D975OL0/PM705q1O9Lp31uRPvnpBzrsfvVrS9NTT29Nr2zYnQ4tzMzFtKf76hAG4lwoSKTEWZNRV6VRDPznnHNOWrBgQTvrcIkirE5EtSP0cUD+8nIoRZdgzMtGZYY4zO10m7ErpdN0bj6LN1iedtppafHixVMQnXvuuenQQw+t/ghD2Lpt5cqV6cgjj2yHj/aUhmwdd9xxvtVcB9LnTcAEJorASMRbFE1Nx4izM36wIp1/4fPpggtfSGf+YEX67JEPpn867IH0zVMfTzfdsj5t3fpG2r27lZY9uiX98Kyn0tFfejgd8fmH03dOfyLdc9+G6oGFX174QoeoK6U53VeHlMRAr0JiNmvMKMSb8heFUbeZM/ys27CD8CkN6r0yly/YiRtiDjHJQxL5TKDiNPkWbXU7nq/i7eqrry6KLXhxLQo2hBx/pY3yQJBJsCHkjj322MSejf3NN9/cjprbbl/wgQmYgAlMGIFZF2+9PqTwuaMeTLfc9nJ6af3OtH1HK+3Y0aqO77hrQ/rttWvTqlXb0s6drXTX3RvT5VeuSa9s2JXWv7wzLV/xWnp8+WvVbNyWLXvSdTesq33XWy7ihjn7poE+zuxIGCD04pYLv/yzbOWiQeEkhPKZopiGjrGRixJdY59fzz8rbF1edJ14uV/KR84k+oMgIx/EV3jZUTw9xECYfONcLxyIh3iKaXNO8ZcuXVqJOKXJtVKeOSf/2JdmESXSFFZp6rzyoLxj59Zbb51ye1jx8FHHiivfoy8xjOpKzA9xSgwI+8EPfrB60CT6JNsl7tGPpmOEFoJrzZo1U2beKO+TTjqpLb6wkwuyaBsxlgu7JrHXZCva9bEJmIAJjDuBWRdvva51u/b6dWnHjjeqV4Cc/r2n03dOfzItXLS5Wr/GTNsLL+5IZ/7wqfSZwxelT312Yfrmtx9Pty14Ja1evSetW9dKDyzcVL2497DDpz7IkIs2ff7umdP72aw46EkExNmh0uBPBckH1vyzREwcNCUENBhrkO0mXOoGflXU/Hr+WeHq8qLr2hNfPikf8pkwHEeRoXwQT1sv8RQ2pqdzdfs8DzFtHSNutOUsuJaLNcIgcmIeCYcY4vZx3Dgv+0ovsiBsnmbpXF3c6J/CKD3s6Fzurxhu2LChKrsYh7p5/fXXx2wMdEza+W1TxBXijfLWFsPpWIKNPQIubojDOHMXr5Xsx+s+NgETMIFJITDr4u3fzlvZ9RbmZ454MO3YkapboUd98c1fX+A26kMPb05r1+5K3/jWY13tSJT1up+ueKPQGegQKwzCcQDnWi4WVElysZZ/lnhhUGXToBsHVc7n8WQ/7ktioOl6Xfi6vERbHEsI4LPyoRmcpr3yig3FizzrGMT0cl/yz7KrtHJ+KkvSytMjrGancrsxHtf4nIsyneeabJfC4Ft+Pj8HlzwM9mWXNNjyeOSB17BQX8VAcfgsPpF7ZWgI/0gnF28l4ZWH08xafl4ulWzoWkns6Zr3JmACJjBJBGZdvPXysMJJ33i0mmG78eaXOgQaL9/91cUvpFdf3ZNO/e7yjmu9CrSmcFdc9cK0y04CQLNN0WCd4FEcDZL5Zw2iGmC5XhIOebiYto7zAVzntc+v558Vri4vuq498cVC/imfhOE4Co8oHmSjFI9rJQ4xPcWv2ystiZvcl5jH3IemdGI80sa+GERfOK+/yCCGKfHPz8lGjKfjGDbnxTXispd/MZ/ik88uyvZ09iXxVRJeCpfPsOk8ceLG5/hgAvH0wEIeNsbzsQmYgAlMEoFZF2/A6fZbpl/88pK0c1dK9y98NTHbJsHFLdDbFrycNmzcnb77vRVTXsqrcIPs8WkYmwY/BsR8ywd1Xc/FWv45t4mdXmetlIb2cTDXubjPr+efFbYuL7quPfFLwkDXsROFiwQD8bQp/4TNN8RHPB/Ty8OWPsf85SIoppvnl7DKV263FJbw+cY5lWPMQwwX/dP5eE68SvYJXwrLOcUj3Sjq+BzLAxvRT+IOYyuJrybxlguvUnz8KtmQv8y8RWGn896bgAmYwKQRGIl46/bQwiGfeiAtXLwpbd68O11x1Zr01RMfTccev7R6MGHLa7vTrl2t6qGEc//tmXToZxa2xd0gok1xhvVLCxrwS4NcHCRjRcnFWv45t1lnJ9qsO46DeSlMfr00mBOP873MyGBPIkf5kGBp2kd+ikea3baYXrewXBdr1nEhWmK6EjiIF/6UD+I1pZOzUfzcH53HFixK+eNaLqbyc7KT25efMb7ywQMZ3DKFrfJJ+k22uI6fhJnuVhJfpTVppXBKu3QbtEm8Ea8UR/a8NwETMIFJITAS8QacbrNvx3zlkfTUyu1p16430pYtu6s/ni5d9fyO9Ls7NqTNW/ak7dvfSMuf2JrO/MHT6cdnP5OWP/F6WrN2Z7r+hvXpiKPLP0YvsRb3w5p1I18SGgyw+SahkA/S+eCdh8tt5p/zdJo+5wN/Hja/jq8lkcYAXjpfsifRI79j/jmO4kJCIvIrxcvT0WeJE+z0ssk2rwYp3YrGD0QOf9GnOi6kmfvAZ/7yLZ7HdknAcT7ywUZ+Lv+sdMQypi3ePDwRz3MMA8oqlo9saU9aKk+dG2RfEmWURelp0/whBqVX97RpfotV4dlbvEUaPjYBE5hUAiMTb48v39x1xuyoLz6Ufn3J6rR02evp0cdeT5dctiYd+YW9ouyEkx5N9z2wOb2+bU96441U/W3duidt2rSrmpm7/4HOW65RrOXH+DKsTWKAQS7fNJjGwVhCLQ7cOqdBtGQT+zEOaWH//PPPr/Z52vpcN9DXXVfaccDGL9IeB/Em//CnV5+UV+0RLsSNedQ1lQXXVR66RrycAXzzc4TjL9/y83zO0ymVV36uVK9IC3uxrnEOXghRhGrMD8ec02ycwlKftCmdUl4Uptc9tvIHFoiLuIpPi+Zii8/8sTFTxwt6dUs1n7njHW+c00Y43zYVDe9NwAQmmcDIxBvQut0+zUVW/pnbq9/74ZPpxdU70rp1O9MZ338yffbIh9LCxZvT2nU703fPXNFVIA7rdqkqgcQEA2xp03UGaQmG/J1iEgwaXBUnt8l12dFecUppcw4bChv3Ehy5MCCO/FF4Bm/SUZy6tORft3DEV1jSiIIjpl0SV3Vp93NeaZdEidhHn6LtnGcpHHZLtkvnOQcDhS+VR+kcPimuyqmOF+FyP5XPGEfnZC/6FRkMclwn3rCFONNDBhJqSiOKN85JwBEeIZeLNdlhb+Emit6bgAlMOoGRijd+EL7b7dNcsOWfec/bXXdvSM+/sD1967Tl6bDDF6cFd2ysXuiLmIvh33fMz9Jbz/hQ+t/P/9/S//Gz/5z+81l/kc5Y8t2xK0MES+kW3tg52uCQBBF7CRyO+9kk3BAUCAn2vQjBftJwWBMwARMwAROYNAIjFW/Amu7sG79n+rOfP5v4NYVnnn09LVu2Ob322p708JJN6fNfevMdcX96ylGVaEO45X9/dPkfjJWIQ+TkMyOTVrGY3UG0aSvN4sQZndIxNrhtR1xtEoWl8KVzk85R+fbeBEzABEzABERg5OINR6Y7+/bZIxan83/5fHpp/e60Y2dK996/KR13wtL2q0SYYcsFW/4ZAXf32jvFZWT7Ya4rGlkmnLAJmIAJmIAJmMCMERgL8dbLi3vj7c9+jrlVmgu1us8H3PTeGQPdzXCcUWLGyZsJmIAJmIAJmIAJlAiMhXjDsenOvtUJOq1xKwk2xNqq11Z1iLsSJJ8zARMwARMwARMwgXEhMDbibRgPL5QEHA8mROHG7VE+a5bt6LuP6Lg+LgVjP0zABEzABEzABEygRGBsxBvOTffhhZJ4i8KNY7ZfPX1htc+Fm65XF/3PBEzABEzABEzABMaQwFiJN/gM+/Zp/rACgo2tJNws3sawhtolEzABEzABEzCBDgJjJ96GPfv2jhO/1XFbNJ+Jyz930PEHEzABEzABEzABExgzAmMn3uAzTAF34BFXp//7gv+nJwGn26ljVkZ2xwRMwARMwARMwATaBMZSvOHd6jXb0qLFG9PtC16a9t+vF93YVbzpAYY2GR+YgAmYgAmYgAmYwBgSGFvxNmxWvBIEgZbfJuXzOP5E1rDzb3smYAImYAImYAJzg8C8EW8qLkQct0cRbOPwiwryy3sTMAETMAETMAET6IXAvBNvvUBxGBMwARMwARMwARMYVwIWb+NaMvbLBEzABEzABEzABAoELN4KUHzKBEzABEzABEzABMaVgMXbuJaM/TIBEzABEzABEzCBAgGLtwIUnzIBEzABEzABEzCBcSVg8TauJWO/TMAETMAETMAETKBAwOKtAMWnTMAETMAETMAETGBcCVi8jWvJ2C8TMAETMAETMAETKBCweCtA8SkTMAETMAETMAETGFcCFm/jWjL2ywRMwARMwARMwAQKBCzeClB8ygRMwARMwARMwATGlYDF27iWjP0yARMwARMwARMwgQIBi7cCFJ8yARMwARMwARMwgXElYPE2riVjv0zABEzABEzABEygQMDirQDFp0zABEzABEzABExgXAlYvI1rydgvEzABEzABEzABEygQsHgrQPEpEzABEzABEzABExhXAhZv41oy9ssETMAETMAETMAECgQs3gpQfMoETMAETMAETMAExpWAxdu4loz9MgETMAETMAETMIECAYu3AhSfMgETMAETMAETMIFxJWDxNq4lY79MwARMwARMwARMoEDA4q0AxadMwARMwARMwARMYFwJWLyNa8nYLxMwARMwARMwARMoELB4K0DxKRMwARMwARMwARMYVwIWb+NaMvbLBEzABEzABEzABAoELN4KUHzKBEzABEzABEzABMaVgMXbuJaM/TIBEzABEzABEzCBAgGLtwIUnzIBEzABEzABEzCBcSVg8TauJWO/TMAETMAETMAETKBAwOKtAMWnTMAETMAETMAETGBcCVi8jWvJ2C8TMAETMAETMAETKBCweCtA8SkTMAETMAETMAETGFcCFm/jWjL2ywRMwARMwARMwAQKBCzeClB8ygRMwARMwARMwATGlYDF27iWjP0yARMwARMwARMwgQIBi7cCFJ8yARMwARMwARMwgXElYPE2riVjv0zABEzABEzABEygQMDirQDFp0zABEzABEzABExgXAlYvI1rydgvEzABEzABEzABEygQsHgrQPEpEzABEzABEzABExhXAhZv41oy9ssETMAETMAETMAECgRGJt62bt2a1q5dm1atWpWee+45/5mB64DrgOuA64DrgOvA2NYB9Aq6Bf0y6m0k4m3jxo1pzZo1aefOnaPOv9M3ARMwARMwARMwgZ4IoFvQL+iYUW6zLt5QrGTcmwmYgAmYgAmYgAlMIgF0zChn4GZdvDHl6Bm3Sayq9tkETMAETMAETAAC6Bj0zKi2WRdv3DP2ZgImYAImYAImYAKTTGCUembWxRsPJ3gzARMwARMwARMwgUkmMEo9Y/E2yTXHvpuACZiACZiACYyEgMXbSLA7URMwARMwARMwARMYjIDF22DcHMsETMAETMAETMAERkLA4m0k2J2oCZiACZiACZiACQxGwOJtMG6OZQImYAImYAImYAIjIWDxNhLsTtQETMAETMAETMAEBiNg8TYYN8cyARMwARMwARMwgZEQsHgbCXYnagImYAImYAImYAKDEbB4G4ybY5mACZiACZiACZjASAhYvI0EuxM1ARMwARMwARMwgcEIWLwNxs2xTMAETMAETMAETGAkBCzeRoLdiZqACZiACZiACZjAYAQs3gbj5lgmYAImYAImYAImMBICFm8jwe5ETcAETMAETMAETGAwAhZvg3FzLBMwARMwARMwARMYCQGLt5Fgd6ImYAImYAImYAImMBgBi7fBuDmWCZiACZiACZiACYyEgMXbSLA7URMwARMwARMwARMYjIDF22DcHMsETMAETMAETMAERkLA4m0k2J2oCZiACZiACZiACQxGwOJtMG6OZQImYAImYAImYAIjIWDxNhLsTtQETMAETMAETMAEBiNg8TYYN8cyARMwARMwARMwgZEQsHgbCXYnagImMK4EVvziN+nX/+efVH/XveugtP3lDePq6oz5RZ7JuzisueO+GUvLhk3ABPonYPHWPzPHMAETGCWBVis9c8k16fp3fyzdedhx6fU164bqjcVbqgSrxdtQq5WNmcBQCVi8DRWnjZnA+BCIIkQzKHF/5f+3f7rz08em56+/Pe3ZsXN8HO/iyYZHHk+X/+Fft2eF7v3iyemNncPzP3IbZOaNWSpxvuKP3pNeffzJLjlKaZA4XY1OI4Bn3qYBz1FNYBYIWLzNAmQnYQKjIBBFiMRE3f6G93wsbXxsxSjc7DvNVx5+NF36/76jLZDuPvJrFm99U2yOYPHWzMdXTWDUBCzeRl0CTt8EZohAFG+X/Nf90rXv+HC69p0HVXs+50Luqj95X9r46AgFXKtV3QJ95rJr023/eGR66qIrimTe2L07LfuXn6ff/P6fJ0TnpieeLoYb9GTk5pm3vWv/ZmLN267XtlYzjg989dR07xf+Oe1+fdugReZ4JjDvCFi8zbsid4bnC4EoQu449Jgpg+Prq9emez5/UoeIu+vw40d2C5XBGz8lKvF/FFvkZvE2c+Itci7Vz1GUvdM0gUkhYPE2KSVlP02gTwK9DI6sdbvn6K+3BVOva7T6dKWn4BZve4XSKMtABTUbt017qZ/yx3sTMIFOAhZvnTz8yQTmDIFeB8fnr7+tLd6Y9Vp9290jYWDxZvE2kornRE1gAglYvE1godllE+iFQK/ijQcVrvijd7cFHPG0td54I2145LG06KQz0jX7HZgu/r/+ZxWONXM3/8On0qprbineZs2F2KKvn5FSq5XWL1ySbvy7QyobN7//0LRjw6sdT1rqlmm+j7NR+axQ9Fd+k9aWZ1alJWf8pFoXx/o4bGqd3Ir/9Zu0a+vr7eDxIHIbl9umxadRW6308oNL04JPfD5pDSNPED/4zR+kbetejlmacky5rr3rgY64l/23d7Xj5oyLa94GYJzbzctZn0tlWvK5Wz2cknGfMIE5QsDibY4UpLNhAjmBKEKa1hStf+ChdMl/eXtbvPHAANvOTVvSrQcd3j6vgTXf87oRFp/HrSTeVt92V1tkYEPCKAqT3LY+9yPeeG3I/cee0tXvG997cHp9zUvR7eo4cpOPUwI1nIj5iX43ROkQsKU4uU1el7L0Bz9ri2lx0h4biLPSRlk18eHBlTUL7m18Se+gjAcVb7zL7/aPH91YptTVbS81i9YSD58zgUkkYPE2iaVmn02gBwJRhDSJtxgOEYeYY4sDLQP6/V/5dnrwlB8mZtGufNt7OwbSR848p5pZk1u5eEPgMdMmccFewoinRbG7+J/PTFf/2QHtMLd++HPVea4xg6aX8Ua/sIP/cYtpM5vEk4yV/ZO/3yFIiMt6v/wdd5GHfIz2ux3nQmsY73nLbVIGzIIy86SniMlr5AvLLSuf63CXJ3VhEcMxG3nNfh+snkS+6k//rrqG+NNsHmFJP26DMkY4LjvrvMoHyld+4Cvlj2/8rbt7YTs5BDZCW2GZJVZd5IGb6Gfpi0TbkA9MYA4RsHibQ4XprJhAJBBFSJ14QxDxSwUaGLmluWPDxsoMIolfMHjp/ocSt6zitmPjpo5ZOWwoHuHi4I5thMWlb/mr9PhPL0h7tm2PptrHeZxclClgL+Lt3i+dnFjLh1iJG0Ltvi+/OSt35f/427RpxcoYpBKD4jGO4k2+LTzhtI5bv+Tt8XPO75iNe/i0f+0Q1axnjLOs933pG9WtawGgnJ+76saqvJQO+5J4mw5j0uulflJ+9x/3rXb9/N0nv5i2v7K3fspnbuvz5QI/EbQv3LhAl7w3gTlLwOJtzhatMzbfCTQNjsyAPHfljR0zaAx8z1y695Yp7BjIc/ETmcYHHfJbfbkQY2B97OxfdAiJaIvjPM6g4o31bm/s2pWbb3/OX/KbC5PIbVzFW90MU/708E0HHJp2vrq5yntr954O4ao1h20w4SAyKIm36TImqZhG3ZeL+GsaeR1ru9tqJUQqfvKHOCev3kxgLhOweJvLpeu8zWsCcXDUwNa053ZVk1jLYUYRlA+suRC75i8/mLa+uDY30fE5j4P/pa3bzFspTjyHH/gjFpMo3pqeCI6iOs4ssh6MW6zKdx1fWG159vl09f988xZ2zijyLB13Y0ycWD/rxNsT5/2q7W/TL2nEPEfBWvLN50xgLhCweJsLpeg8mECBQBwcNWCX9tzSfPL8S2qFG4vT+eUFZuoe/s5Z6faPHVWtkdITnNjsJt6YKaq7XSrXhy3eEKKs+WJgX3L62dXvuCJe4hopfM+FSeQ2ipk3fMwX3uOjyi5nLX7ax6eHY1jW3vEZO3Fto+LFfS6Qc0YKOyhj4kfOdeKNtX3Kd6/7QcpM+fHeBCaFgMXbpJSU/TSBPgnEwTEubK9+IuudB1ViBkHGU6WlDbHFgwi52CkNolEkYCsXYtWrQkqJhHN5HPwvbbmwyMMhKJ684LKO15+UfNa5XJhEboMIARbb65Uq/AYrM5TdNp7wlT+lNPsRb1GkxXKpO1/yLWecM5ouY9KMnC3eSqXgcyZQT8DirZ6Nr5jARBPoZXCsy2C+dopZNtZILT75+4l3pPEqiRdvubMtkKJIwGYuxGZNvLValeCUEEJEXfc3H62ekGUx/4u33lU9Tcs76xQmFyaRW0lI1THT+SiSSEOvXtH10p6ZQflTuu3Xj3iL4jGWS/Srm6hsFG9DYAyDyLkX8cbDCpRftz/yT/31ZgJzmYDF21wuXedtXhPoZXCsA/TSvYvbTyX+9s/fnzY9+cyUoP2seZst8bb56efaTx5e/od/XXzXWbf1WJHbIOJt+/pXKsEoMdbt92J5SlcvLiZOacF9FG/dhFf0P96C5ala1sDJryZRGcuW8FHgDoMxlSn6WSfeoqhdcPAX0u6t/vH6KQ3RJ+YlAYu3eVnszvR8INDL4FjHIcbllRQ8XZhvKy++ui0E4gwP4YYx88bAXdryWYFkdFQAACAASURBVCF81RZFTt1gH4VpLkywE/M+iHjjSccHjv9Omw2zfyt/89siQ7gyk6nbrPhTElUxX4TJXwGi/POLFfF9elEI8tQps3rE54+ZrPzlytjhlijvXFM49lG8RV8GZZxzLs02EmbN7+5rs0GMv/LQMmXVexOY1wQs3uZ18Tvzc5lAFCF1Mxt1+Y9xeYebXpBbhW+1EgJI79ZicJ8J8XbbRw4vrsfrVbzh08ZlT3RkkRnE+F67XJgQOOZ9EPGGDd6NF9cKctv5oVP/JW19fnUljhBI+MJLZqNwq3t9RxRM+Iztp391Zcf79/i5L4Q216sw/+XtU36n9vFzL2hfJ0wv74ojXJ14G5RxzrlOmOVilPWa/MTalC8TrVbFc+n3f1p9cegodH8wgTlIwOJtDhaqs2QCEIgipF/xls9Oxbfa3/Khz1SC46a//2TiFh6D+zDEGwNyPuPDb3UyYDMzo5fpNom3eEuvEjD/db9KIPEaFBggom54z8faT13mwiTnNqh4Q5yRJvZ7/eOp37pXgETxBvPfvv0DlV398sUdnzq2QyySZunVL/mvFRCOdPUQC8ec47Ucda9TGQZjOMdZNdKMD9U8ffHV7Uac/6waYcm/fmWBX9DQL0P0W8/bifjABCaMgMXbhBWY3TWBXglMR7x1Ex93H3FCWr/w4bYIGop4S6l6JUmc0WOg5i/abxJvpduQssGemS1e/Ioo0/k4qwTbyG1Q8YYdFs0v/eG/VYJRadXt+XmoakappnCjeIMFi/bj7dHcLuVTuiWKeR5ciD9DVorLe95qGRVu9UYbvTDGD/zjFTIxro4pg/bWaqVV19wy5VcfFDbuyXe3V9K07frABCaYgMXbBBeeXTeBJgJRhAwyI4GAW3XtLenG9x3cvrXHU5rMiiBM4tOLUVzh0yBr3pSXLc+sSvcc9bX2YM1s2W3/eGTa+sKaKkijeCNEq5XW3bOo+iFz4jK4IwiX/cvPq5+TyuPPlHhTfratXZ8e/ddfVDN+8qfy6U//LvEwA0Ks29ORuXiDPbdJyZPELjNXcGKmKv85M/miPQy4xagZPPxCdL148x1V3G6MpstYfigP8gMuHONHvuFTzpFbzjxQw9o+GFFnvZnAfCBg8TYfStl5NAETmGgCJfE20Rmy8yZgAtMiYPE2LXyObAImYAIzT8DibeYZOwUTmCQCFm+TVFr21QRMYF4SsHibl8XuTJtALQGLt1o0vmACJmAC40HA4m08ysFemMC4ELB4G5eSsB8mYAImUEPA4q0GjE+bwDwlYPE2Twve2TYBE5gcAhZvk1NW9tQEZoOAxdtsUHYaJmACJjANAhZv04DnqCYwBwlYvM3BQnWWTMAETMAETMAE5i4Bi7e5W7bOmQmYgAmYgAmYwBwkYPE2BwvVWTIBEzABEzABE5i7BCze5m7ZOmcmYAImYAImYAJzkIDF2xwsVGfJBEzABEzABExg7hKweJu7ZeucmYAJmIAJmIAJzEECFm9zsFCdJRMwARMwARMwgblLwOJt7patc2YCJmACJmACJjAHCVi8zcFCdZZMwARMwARMwATmLgGLt7lbts6ZCZiACZiACZjAHCRg8TYHC9VZMgETMAETMAETmLsELN7mbtk6ZyZgAiZgAiZgAnOQgMXbNAt148aNyX9m4DrgOuA64DrgOuA6UFcHpik1pkS3eJuCxCdMwARMwARMwARMYHwJWLyNb9nYMxMwARMwARMwAROYQsDibQoSnzABEzABEzABEzCB8SVg8Ta+ZWPPTMAETMAETMAETGAKAYu3KUh8wgRMwARMwARMwATGl4DF2/iWjT0zARMwARMwARMwgSkELN6mIPEJEzABEzABEzABExhfAhZv41s29swETMAETMAETMAEphCweJuCxCdMwARMwARMwARMYHwJWLyNb9nYMxMwARMwARMwAROYQsDibQoSnzABEzABEzABEzCB8SVg8Ta+ZWPPTMAETMAETMAETGAKAYu3KUh8wgRMwARMwARMwATGl4DF2/iWjT0zARMwARMwARMwgSkELN6mIPEJEzABEzABEzABExhfAhZv41s29swETMAETMAETMAEphCweJuCZHZPrH7g7vTLt78lLb/0l7Ob8Cyktnv7tnT7Vw5PV3/8fWn7hld6SvGlJYvSxfv/cbrjn7+UiD+Mbcemjemmoz6RrvjQu9Krzzw1DJPzzsb93z8lXfJ3f542PvXEyPO+Z+eOdPe3j6/qCe1nUjbYwRCWs7kN0g5n0z+nlap2NYq6YfadBCaprVi8dZbd0D49de1llSi75YuHpl1bX6u1OyniDfGFCENodvvTID9IQ5hv4k2Mcqa//pv/nm7+wj+lF+/5XWq98UZt/ZmtCxZv0ydt8TZ9hpNigS/jeZu+cL8/SL89+O/Toxf+PO16fWtHVkZVNzqc8IdqwqDfCYdRYbN4mwHyzAzc8fUvVI33V+/6o7TuoQdqU5kt8fb0tZenG4/8eHp15YpaX5ouMHt165cPqwQcIo6/yz/4jiqPlx7wFx3nb/jcR9Om51ZOVENoyvtMXpN4u+gdf5iu+uh72hyv+PBfJzp7BoBFZ303vbF790y60dX2KMTbmoX3pOs/+5G0ZtG9Xf2bhACjGqBVx/qZAZ8EnjPh43T7Sfkk8UYfqf7y6o+9N/GljDZ97aEfTK+vX6fgnnlrkxjtwSS1FYu3Gagrryx/NP3mb/8kIWIued+fpftO/+fU2rOnmNJsibeZGHy7+T5JDaFYOLNwsonRtpdfSrcd99lKxD1/xy2z4E19EjNRf+pT23tFAyD1bC5sFm/jX4rDqud1dZcv9sy88cUsjgujqhvjXyKz62FTfzy7nnRPzeKtO6O+Qzx07g8SM24v3L0gcduUb1xb160p2ukmgIqRBjg5rE4pJt3N90lqCDFfs3ncjdHLjz2SLn7P29I9p55Q+wVgNvydifrTze+6AbBbvHG9PqoBulsdG1deo/BrWPW8qe7u2rol3XT0IenKj7w7bV27usrmqOrGKBiPc5qT1FYs3oZck7a/uiFd9+kPVaKNtW5qxKyBK21NAohvaU9dc2m66qP7V1PtTLnfefIxafPzz3aYig1/9/btCfHIbbgFJxyZ7j3j5Cpuvv5Ct1C0mP+Gw/8xbXtlfYfdbh+afCdubAjbNrycXnrkweo2GN86lZctLz7fkUzMS7zAuq/n77qtik/eyM+VB707PX7x/+oqaqIf8cGJ6djEN8rnuduu7/Dpsg/8VXrkF+ckyqGXrc43xdVaQ9ZhEJYtDjDrlz2crvnkP1Tf5Ncuvk/Rir5xe3vRWaclZvRKm+ob63LyMoppKq7qNvUg3xrz1WqlDSseS3ee/OXqoQPKkjLlFinlL7t5ndVaStIq+SMfYLbk5z+u6gc2yAt5oi2Rx7hFP0t19N7vfr2WV7QTj2mfMW+0X9o/M/J1i9LFvp+2zq107OZx8jYV8xjrv3ze8uKq9MAPv52oH7EsaG/t9ZatVnrwnO9X11ctuElRO/YIEQQJS0bIT+wfqHOwpN1T1swoy8/tGzdU9ZIHlUif+sxaz9RqddjnwyCciPPE5Rcl2ib22fOZ89qoT1zL/9RPKlyve9XhUtvARl5/6/o9wqqfuu5TB1Z1GX63fOlTaf2jD09hRJ766ZPyukoZ3P2tr055wKxX7k18qAP0P6pn1IVbjzksbXnhuSnR9vp1TPs2c9WGCu03ciQO9Qo+qmOcK22sOXzkP37S7iPIN769tvqFvh+yK9mfjXMWb0OmzO0tBotHLzyvsrx51TNVZxEH35hk7ODieTo03TJjrRrrnu765rFVZabz2fDk4+3gavhMwy8++4x2B0SaT113eRX3t4ccUM0G3nXKV6rPCAzEpeJS2ZvW5rUTCwd1vitIHDQe/8351S1k8rDwR6dWHTQdJUI3ikb5Q6PUxiBF/glPx058rtOg67gqLvvohwav6drErjpo+YSPCBD8vPe0r/W0Tq3kW/RdAyKifc+undUldVgrb7iqPSCRpgYK1R3OwYjw+EY9om7m9Qej1IU7Tvpi5Tvr7YijcuIpXcopiqeYf6Ub/a7LF9yXnPfjyg86b+oDvpGW1rchQjl301EHV/4sOPHo6vNDP/1h2vrS2g4G1Je48cAL+aM+M7uBHfJCnuDBFxryqi36iV8sc7jnOye2804c/OJLTi/bi/f+rhKkpE/dJH21W/KDffyJm8qLsum1rd97+kmVbewhikinrnxjHlX/q/RbrfTsrddVfQplcfvxR1R2sIdd8o5dyowNttxRqJsFpj4Shz2b+gdsXHfYh9s85Cd16uXHl1brv9SGEL2ww5/V999V2dG/QTjddcpx1ZPriDDqWMzbwz/7UVv8PHPzNVVe6/pJ+dDrXn1DqW2whAaGlx/4zrZwKfV7pMWXwPu/942KqxgpDzCqRG5wSukqLOzr+iTiYiPWIdrMZe//y2pckNl+uCtOvme8ol2Snto89a0q5/jlL9RJ+aV+KK+PpEFbol9adv5Pq3xQf2JboO9iDI4baw3FRJzUR9BfXnPI+6t1ih1tJRoYk2OLtyEWBIMrgyyVVBVG51gDxzfvfFMHR6PTRuNe+C/fqSo2nWv8BqpGEEWLGj7fzHhC8dVnnuyIg11V8nyw27llc7r1mE9Xr9LodYCSnyXfdY29Bg0GJRboxm9YXINV7OyJo7zEAU5rCHNBxDdSHsCQqIlpx2P5Eb9FT9cm9pmZYDYxlg/fUO/8xrFThE70Jx6XfGtfb7XS8ksvqBjpywDXqrJ8358lZkuXXfCzjlk+BlpmUfQFQgNvZbPVqnymw+wQJK1WZYeyoN7FGQnikzb2hiHenr7+ysoWX0wYFJo2DUSlAbBUnxF2dLy0P4RG3MgTeSOPcdAWf/J3/WcOSq+tfbEdDZGH2CNO3WxTO3BKVVweOiH9V5Yvi5equo9v2Ip1e9C2ftE731r5tvO1LW+m02qlJy67sOJLHVQ5Ko+x/hOJ2U/KFL9i2+Qadhlc4UKZscGDZSDxdl91gRmxfX1fXCKi/qGyce3l7XZCnWKAhQUChgE3zlTTrhCJ8QvLdDiRlljgr/rQUj5K9Up57GffVHfFPb6JoNTvkR524EcbjG0ZAUKfeu2hH+h48KHXPkllSX2NdZ40+cIo4dIv9xIjbDCxwBj48qNLOoIwG1d6cCPvH1RnqBd8QdJGecEHkRbbnMJTx5aef66CVwwZR4hD39qeWc6Ect5W2gbG6MDibYiFoVk23TaQac3GcdshDvRcVwcXxZsaci5WKnv7bl/EgVThqdh1s2fD6pSUpzrf43UNGjSgSoTGi+T9/ruqRhQHM+UlnhOj2AgzU40f5UdskNO12ZRgU8edxyv5Rh2h83z0ovMqAZ/PTsIGpnk9w7ZEaelalXarVd0uoPPSQxDcLuS2Iulw2z/fdmzeVIn7WOcI05TPUr60pKA0YORpdrNfqs8McHCpW6KgfESBIT/h8dztN05xQ3UU4ddtE4+69GkD+Bfrtup7v209fkGMfiFSKPs4q6M8xvqvAbWpz3htzQvVjGUUGWKci1n1fXxxUB+nNhbjy1et5Szlg3JCSCMqVR8H5VSsa61W+wtOXGqAb6V6JZ/72asuwEAb5YDwoByqGacws6j8xbqhdnnz5z+Z+JKdb9Qz6m0+Q5mH43PuD/0LfjDTxhq8uk1+9Vo/S3ZU/0piuSP8vnIpiTzCleoYvGhTfIlVvZNN+c4XMH050Lm6/lF1PrYV2Ru3vcXbEEukrmPjYQUGDAZIGmTc1MHRuLStuPLXVYWM3zB0jX3eEFUhmxrisDql6EfJ93hdjfbSA95efDmu/I4dVukca3JY30ZHT2cbvy3F9OqO5UdskNO1qbToFPDpkf84u5oJia/4iGWq8PlevtEBlf4QVPmsiDqsfADFtm5dla4pbd3+kiDRZ9ZK1m2l+pPXwxhX+YrMe0kn2miyn/ujmZ9uAwR5ZMDToC0/+6mj0UcdK/0omnRN+1LdHrStxwFJ9rVniQJ1ScJBeYxlIYHU1GcoT5GNBtD81ilCIheC6h9K9YqlEvSJvH5o97bX5Xq1L/k7bE51dSuvVx2O9fFB9kttmvVVrEuLYqNUN6ij1FXKs7SJL2nFrZc+ibJlCQ3289n7aKtf7jFuPGYNKizuO/PkohAlLEIdwV6qE9X1fYIz3nWivGJ7jmlKoMbw6h91az+G57hU9/Iw4/LZ4m1IJaEniOK3+rbpfbNlVDLNduhaqQHS2ZUafX6OhsWmhp93qEqD/bA6pWiz5Hu83q0hyG9801Y6xzWtJYIBAonbQ/mLLmUj39f5MR2bdLx0wFpkzZ7b1uTl9q8eUZVf3qnmfvFZvrHOh1kCBljW6VAHEDsloUoaPIHK7EW+EY9BlLh1W84YoQdX1adSvFL90QBFPcg35SsKhl7SiXaa7Of+SIwwY8Nx3ZbbLPkZ4+as4rV4rPYfZ4vidY5LtgZt6+S/buslj3wh2HvL8s21lCV7OWcJuiiSNduXC8Gm/qE0sCr9UpkMm1POSGnn+dX5fveyr/e8MfvI7VvW1pX6rVLdkNDI+/38s76E9dsnxbVfzASSd77Uxq1f7jFuPOY2rdbU0tdxzO3jKGBVJ/P85Z9jG2sqr1Id4+5NndjD31Ldi/kYp2OLtyGVBrcrGTTzipZ/zqdrSx0cjZE1LaxbocHX/Wn2oNTw82w1VfI8bK+fS77HuN0aQsnv0jnZ5NbBY7/+RTUDB1cW1oqBwpT2TX4MalO3J1l8venZpzs6IXXc7LttTb7VxW0qS+pOv+JN/jbN1pXSVLxexZu+xdd9683z22Q/90ff2kcl3jRQ5AIm5qlUt2eirefcSnWMn4ljRi2uK4u+6jjnzHktA1F9Ub648xC3pv5BvOKsiOKW/B02p5yR0i7lV9f62dfZr7MhhqSvTe0FRnVjgAQhcQbpk1gbtvq+O6s1sIgahBVPYWp9Xb/c5XtpzxdR1qXpiVDS48EbhB2b6iRf+Hjysy7PetiOOE3lVapjhK/74ou9Ut2rnBvDfxZvQygUrR+hMjIrROUr/TE7k6/xKHVwavh1t01zl0sNPw/TVMnzsL1+Lvke43ZrCCW/S+eiTY7pBJ69+dpq1qs405lF6ObHIDb5BlcnklR+7LttvfiW22gqS3X4GljzuHzWeiO+VbOpHOtuz1C/mdXtZ82bZqLizJvS6XXtojgSL99yBtwq4lZinBHK4/A5L7du/Hupj9ht2/nYezueno4+iDu+a1Me+23rTbPsDLhxgGr7Fn5jWGK3SWyq3PNbwVoGIh8QbXm/Rv5U3qV2UBpYxaTk76CcImvZZy97ed3K61WM089xnf06G6V6Jn517TK3ldfteF3+sK/b+BLKMg3GMd0hUrxe62ed7fw8DyroYSCJftWJutumuQ0+N5WX7MUvCN3yU+q3SumOwzmLtyGUgjqzbt/6tSZOlZWk1UBjo9LaoNIDDiV3Sw0/D9dUyfOwvX4u+R7jljrheL3kd+lcjNM+Dreiu82+dfNjEJt1PHULiZnBWKbtNLKDnn0L8erSJoi+fcenDUPUaoaQNS4ITz3cIualheXE5Wk0bunm4k23dUqDi9ZGRfGm1550POna4VznB3W0+QBLqBID2hUDj56O7LSWqrU2LP6OD2Z04y82pNe4hUXwGvg6wocneqOtQdt63ZcWRBn565ZHfeHkdtm6hxd2uKoPKvf8bgG3uuibEMobn15RPYE6JUxN3ybbpYFV10plMiinyFr22dfVrVK9ivF6Pa6zXxe/VM90G7HEtmSnzvd++iTdQeILAFu/3Et+1Z1TH6H1m7olX/oiUGejLs+EL9UxPYAUf90i2uZpWB6YiP1WvD5OxxZvQygNFusyWHebUVBljR1rSQCp86Jj5dHvuC4Ad3nxIC+Z1FZq+LqmPY0xDtg6PxuvCqlrCCW/S+dYm8E3tbgxrc8TULmgiGF0LJ7Rj+napKz3CrQL3iyfVqta0wLnUYk3OmqEGyImfxSeekTnRefEu9PgwtYUhxktvWcqZy2hmP9OI7dB9K06Mid9XtMBG2xiu73t842XDmvTLGLp6c1Sp0374pUBdP7xtQHYI4+8Jw4uK674lZJ4c8YszEq1L9asU4vX4zEiiDYLj/z1CwyC+FXlPQhB1c1+2zp2aNPkSxvHnMvrntLoKIuUKtFW5y+vCqEecb30NKMGeUQct19LgrXUt8nX0sCqayV/da5fTtST0lYnrur6SV4ozDvg7v728R3MS7Y5V2e/Lnyp30Ng40+xLadU9YmkAxu2fvok4uTLPbDBE9d709s7Q9cv91L+EGW80ilfvyuhFJ9QZoaP/pPX1HS8BmdfG+a3Z/ndbG2lfkDXSnWM12Hx5bFUj/Q+O9pP3lZkc5z2Fm/TLA1VbgZEBrOmTd8sooiq6+BozAxENCQWwvOiQtYA6AWXNGptpYava9prnQrrxKjwPPXDt3QGOXxnrYNmYhSn277Od8UTm7qGUPK7dI508I9bPFoHIQ581voMpZvvS35M1yadEYMxfmlNCj6xQJn3VuUDaO6TPpd807W6fVOHRZy4ELn0kl46L8LEjQ6RcsLv/MWVCDHylIs3uMOfOKpX+MbSAV4kykxeXvZx4bJewhnrNeWiTeKQ5Qa8OJc6y7oYtjoGdP6Ej/VFPtGWeIl1rC/d+Jfqo/zL9wy2rBciHQaH9stIv3J45dOSf//XiiH+xI00+m3r3FriSyCssac8UhYsBtc6ItKpzWOrVQlZWOFv/pJezldCt/BLB7q9RF9WNwvY1D+UBlYxqfN3EE45a6VRJ67q+knOV/X8A3/VIR5kL9/X2c/D6XNdPatry/Q5lI9mrbDTT58k/rF/0Muk8y9j/XBXfuJe5Ul/Sb9Ae9eLhjkXXzhP26SN0oZoxzy8FcPHJ59Jg/LN+yWlrTzG26ZcY5wjDmnQZ0f7df2WbI7T3uJtmqWhAabullNuXp2Dpm2bOrj850RorAy8zETEWYu6hh/TplHQEevN6byYl1k3/TzWTUd9oue3yMtuk++EUaPNB3DFL/ldOsftNsSDflZFHJiVzL/NyXbcl/yYrk3s01nyMzX4wx8LcZkVVcfNvttW8q1bnKYOS3GpH8zO6qeu6Kg4bnpKV/WNTlMDlX7qqy5N0iGMZpXY85lvsXSapbJnhogndfVzP/Jtys9X7XupMAIFf5j50E8q1flD/pn1ij/3hDDhZ3jWLLxnSn3pxr9UH8W4tKc+Ui+VN+oFdYRfEmiyJfZ5HW9q6zDmSx35gw8D8RSGPbZD2pfKnT2f86cB8/xqGUjd8o6m/qFuYCWNpjIZhFPuN5/VRvExbnX9JLcwuU08mzNv8iv/KSe1F37gnj48br32SbRBZuqoM9ij/vA6Jr58lJ6G7ZV79EXHfKl5+rorqi+FtAfSop7X/VSf2hBjXQzPww35bGFTP9BUx+ineVino+1ce1nFs67fUn7GZW/xNi4lYT9MwARMoAuBJgHYJepwL+9bw8fMG7eEvZmACcwuAYu32eXt1EzABExgYALjIt70kFavdxwGzrAjmoAJFAlYvBWx+KQJmIAJjB+BcRBv3FpknRC320o/KTZ+1OyRCcw9AhZvc69MnSMTMIE5SmCU4o11Syzo1sNC93/vmz09eTlHi8LZMoGRErB4Gyl+J24CJmACvRMYpXh76reXVrNtPPSkB1l699whTcAEhknA4m2YNG3LBEzABEzABEzABGaYgMXbDAO2eRMwARMwARMwARMYJgGLt2HStC0TMAETMAETMAETmGECFm8zDNjmTcAETMAETMAETGCYBCzehknTtkzABEzABEzABExghglYvM0wYJs3ARMwARMwARMwgWESsHgbJk3bMgETMAETMAETMIEZJmDxNsOAbd4ETMAETMAETMAEhknA4m2YNG1rWgRW3nh14oeuHzzn+6m1Z09la/f2ben2rxyerv74+9L2Da9My74jm8BcJLD6gbvTL9/+lrT80l9ORPbu//4p6ZK/+/PEC4cnZZs0xpPCdSb8LI0jM5HOqG1avI26BKaZvjoVOu/SH8IHATQJW6nRWbxNQsnZx1ESUB9g8TZzpTBpjGeOxPhbLo0j4+91/x5avPXPbKxiqFO59IC/qGanmKGKf/eeflLavX37WPncjzODiLenr728+v3FV1eu6Ccph50mAXOfJsABo6sPsHgbEGAP0YbBeNfW19LCH52a7jrluJF/oR62L277PVSiIQexeBsy0Nk2N4xOZbZ97ie9QcTbJN6W6YfJuIY199GUzKT1AZNYT4bBmGUffLEeh7shw/ZlEst0NK11eKlavA2P5UgsDaNTGYnjPSZq8dYjqDEI5g58NIUwaX3AJNaTYTAetmCaTm0bti+TWKbT4TcOcS3ehlQKe3buSM/ddn26/rMfSRe94w+r9WeXfeCv0iO/OGfKbcvYEex6fWt6+Gc/Shfv/8dVnKs+un9adcfNqfXGGz15Fm31FKFLIBYRs5iYxhh9u3C/P6jytn7Zw5UFbsWSN/LIWrsrPvzX6alrL0tv7N7dkcKgXGSkH/GGz6V1f/nDDrBds/CedOsxh6Vf/81/r+LA/86Tv5w2P/+sku66j+y3b9yQ7v7WVxOcFv7LdzriYvPOk49pp0UZP3XNpQk2+cY5rv324L+vbFGXbjvus2nLi89XZZIv9OZWGXnGl3xrYgeD5++6LV33qQPb6dzypU+l9Y8+nFKr1WEq94k84t+zt15XheuVe4fRfR/qymLRWaclmMYt1k3qGfUNluSfcoQxnOKWM3j58aWJfMKVfJD/F+/53ZQ8x8GIOn/NJ/+hCr928X1t86W6zfIFfN/28kvtcJtXPVO1k1u+eGjidlW+8XDOPaeekH7zt3+SXln+aHW5ZLuX/iS3Xfo8qO3YH8C8qa/K60wsn8i25F88N0j9jvapD1PaXqGf5XH8OQAAIABJREFUqtJstar6r34h1o/V999V1bP81jQiaMnPf5yuPOjd1fUYR+1IQqnUN+Fr3MQtr9f99EvUPeogdVFtgzxteeG56qEv+sNuvvRaR/C/ZEt9rvJeN9sY+9DIoSkPMVzpuGQz9gPbNrycXnrkwWo8o7yom/d+9+sdbbZkd9zOWbwNqUTUydDJs65h0VnfrSoHFfve077WIWpUuRaffWa64fB/rMIR/q5vHltVJCrU09df2ZNnspV3Kj1FLgTSAImQWXDCUdXaMXyj8THgMYCsX/pQWnDCkZVgo/He850TK/GJ3yuu+FWH1UG4xLzERkdH0LQ9c/M1FfffHnJA9dTqXad8pfqMyNSgiei8/3vfqDoc8kKjjfmjIVeDeVNC+66J/bLzf5oWnHh0uxNrd8itViVwsHnJ+/6sSou6QR2hXpBuFLv4eMdJX6yuIYaxo/BXfOhd6bpPf2jKU3riiy/5VscuMlB9hQM+5vnHJ8qasr3xyI9XPhMWdspnL9xz3/RZDJVfmNz65cOq9G7+/CfTzi2bFbR6OhHxyjpOwokpx/iGj/i14cnH23EigyevvqSqp9Rl4sT29sRlF3YIOPJGWitvuKqyqQFKnBGWiGrOM9ASvs6PPbt2VgIiirO2gymlrWtXpys/8u50x9e/0Bb0KleVD7b5YtjUn8R2E+3nx4PY7qevGqQe5z7qs3wVd51nH8s29g0qO9ZhXf7Bd3TUW+pMqe0htOi76ONoA9QNmFNXeAKePfEiY6VPHNUp0r7s/X9Z1cXnbr+xchce9EH3nXlyJdBpyw/88NuVfdqONtWp2NZUR/N6rTj5nrpP2I48HH9E9RmGvfoi7t3qX7e2P4h465aHPM/5Z/UppbJCVC4578dV38G4pf6VsqV97di0MTc3tp8t3oZUNMxioOb1bQuzfHu58xvHThlwVbloYMsvvaBjlg3hwPmbjj4k7dq6pat3shUratdIDQEk3qjMD//8rDfFRauVGODoWOgQbzrqE2nbK+vbljaseKzK5/WfOSjt2LypfX4QLjEv6iD1Ta5tuOFAnTd56dharYo3eUPA5Q9yvLJ8WdXx0bkyW9JtE3tEBgJn67o1HVHEkkE+ziIh2BgYGBRevPd3e+O0WmnZBT+rBghm7qg72ghPhwP7Ycy8wRdbj1543pvlm1J6ff26dO2hH0zXHvqB6pj0n7/jliosvuV1O+dby10ZKexffnTJ1JnmVquajcZHZjy0iedF73xrxXvna6F9hPpJmxM/1R9sUa6Ucdw0UORlXuXlfX9Wfbki77GuUB4MviWGMKLO04bjYLBqwU1V2cI83xCI1En22qbbbmSntB/Eds99VZd6TP7hltfjkp+co67ChraWbyrbvG+g7EiD2XTyGuut6jj5WffwwrZJ6iHimvr/2toX2+c5eGnJoraA7+ybtqcnrvjVlBkb+g7qE4IOH7U1CRlmX2n3+FXNaIfZb9XR3J7sao+N+07/5yof5CduzGSRd21NvhCmnzpC+Lq23y0d9aHi2k8elJd8n9vkuuoK9YIxKpaxvqBSz2ink7JZvM1wSZU6H1WufGYhVrJLD3h7evWZp7p6J1tUvNIf1/vZNEBe/bH3ThEjmiFAdKx76IEOs5pd6NXvJi5qyCSgRpd30B2JZx/qOhLEFfliBmv7q5235GSCjhOOpUFWYbQXe77pThF7rVY1wDMg5B0p8XUrDRHA4MJUPrci63xDECOY80GvxFH+ldgpnVLdIx63IungJJpkv5dOrY67/OlnL7axLqhuFnnv+7LE7NXlB76zukVEemJAmZK30sZ5rkfxRF44F2fDFJdbm5Rr6VoVptVKj/zHTyqOiF821b381qnaTam9Kb24V3nEdl1iFeP0etxku1RfxDa2edWvfutxnY8lnxRW6ed9g8qO90VG4aZ49F30YQ+d+4O9p/a11VK/VgXYV57Uh1gfZS/f1/nVJGRUt/O7NEqfvORtvy5dZnHpq5u2Jl+a4tWVR13b75ZOXnfFrpc81PmZ2ySc7NK3aUY0xqe/41q+5CWGGbdji7chlgjfzlkT88h/nN2+rUiFyBu9KlddRalrCCVXZavuVSF8a+xnUyfCOhEGlrjt3vZ6dUuLgSbOuilMnd/9cokdpBpd3kErzdK+zg9Y0EEvPf/cUrTqHOtCGPyZSYuzLaUIYs96Jb4xxg1xeM0h7694wS3f8k5NvrUHlDxCzbfbus6U6CV21E/q5OO/Ob+QQqpmOGJ9Zb0XswHk5dVnniwOhjJUx13X6/bMZLHW7tELf169RuGqj76nvW4Um9pUN5vKhnzhP2XDJgZRYMie9hufXF7dRolpcYydkmjVTFnpmmyqPNXG44yC1rURNhfxis9+Ou0m2ikd92tb+cht5WWufPdbj3O7+txv/SYePlHH4/pE2WNP30UfppksvhgxG5PfNYhx1NZj36TrzGjxpW/Rj09PNx7xsfZas1xs5W1e8dmvuPLXVX1rz8THi11mIGNQ1t9Rb7lFG5ccxDAcN/misL3WEcLn9UA2uqVT4tprHpRGvi/Z7NYPqG8hH5OyWbwNo6RarephBT10wJ6F0FSE2796RNWYYqMvVa7oRl1DiGF03M2WwrFXWBp3/FMnRpimSqwGUCekpvg9BC7d0oz50/EUP/Zd0KAbZ1gUR/tunY3CsRfPkhiUCIycS8eIIoQeQoDrdOJ1Wylf/Q5uYlDyJZ5rD9ZhLRDXWQPDgzm6LRl9LfkXr5eOWWrALSZsIxJZr8iaOh7+4Bw2tTXVTYXJefRSf0p2Sffi97wtvfzYIzLd3iNM+BKAUKnbSjb17T7O6jLrN2XGZwjtps4vZqIov5nqqwatx3X+5uUZw9WVbbd6mLdx3VFo+lKgth77ccSNbp9TV1lOwswqDwvQR/Yj3qhT2Oj219Q/wCauN2QtHmtoWdKSz0DmDCLXfusIceuYN6YT+tDItdc8dPgcPpTLqvmXekrtNZgcy0OLtyEUi26jsGh607NPdzQUdT6xcpYqV3SjriHEMDruZkvh2HNL44W7F0z5Y3ZFM0dNlbius1Qaud/D4NItTaUd97kfuqZvt8MWb7FslRa3vJntoROnM2eNW+lPD1OonjTN5pTypXjUg3wrsRMDBHvJH52LC6mxy+wCt2406CPiqpm4kGjJv3B5yqFuJcKI9UfxCWvVa2xqa6qbCpPzKDFQWO1LdpvygrAdRLwh0rmdqFunCGBuvebrW4fRbpS3fD9s2zkn8e+3Hud+6rPs9Vq/iZf7JFva54JC5V+aQVcc1Uf80ab1ezzMEWe5VOf6EW/UKdZysl5TbbC0r5tNlE/saUes7WStLQKOWUge8kEUacsZ6Dz7fusIceqYN6VDvBJXzveSB8KVtpJNlUndxIPqAPmYlM3ibQglxcxLXWeuzic2+lLlim7UNYQYRsfdbClcr/umStytAeR+D4NLtzRL+cr9UBjdMizNlCmMvoWXbhsrjPZN7NVp8eRk6bapbGgvW3W3M/k2zK2QfEBQ/SJ+vvHAC8Igdlhd08mNZJ8RHI/96t+rQUEiREHquOt6vtcsTUlMy09salPdbBpkGQTjjJnqT9MamlK9aMqLBHCTQGHGDj86bh+2WpUA1lOnyk+ciSOvw2g3Ypbvh20756Ryq6vHfEmk/PJ6nPupz/3Wb+LhU6wDsqW9vlipHvXSVlVX1Y+rbZVutarO5XlUOvFOh3xSPutumypcv3seVGBGkRm9WM+afOm3juBTXg/kZ1M6hMm5Kl7c1+UhhonHqoMqK66pTGJfGOOoLZKPSdks3oZQUnUVV9+saTixIpUqV3Sjzl4Mo+NuthSu131TJe7WAHK/88/yoR8u3dKUzbivS1czPfEpwBiPYxaz8k21bnF7DN/EXgvR6xbXRzsci3suiBSOp6NYC5YPCLoNWhostZ4qdli6nVu72F4JNuxVfvk6sjrudaY0YMGxY9sncmg32NQmRnWL+zWzFRfLq/5Qpnp4QPaq/b608luXTXnRzER8qjW3yROquU3CSNQxkJL/Uv2oS1vc++1Pom/Dtp3bUxn1W4+jj/G43/pNXHzKxUq0qQdU1MZVRySqY1iOWZPJgwSRe5MoUbvL22pTHK0VrHvIIvepn8/yJ94WbvIlL1OlVVf/uF4XR+sJi+ukQzuP46PSi/tSHuL1eFzql1XGsS+McVRvycekbBZvQygpvqnsbdgXvHnLtNVK3HqiA4+NnuRKlSu6UdcQYhgdd7OlcL3umypxtwaQ+z0MLt3SLOVLt7XyJ2KZveKFyJQHYeiM4sbaEAQSg3/pgYwYluNu7PkWTfnffvwRqeO1FvuejOQ9VJueW1mZxRfEACIjf30Ma2tgy22VfECQkOAVB/FVAPHx99hhMfNB3kvp4AjfculI4c6Gf7ycNW7cIuLpQ56O5Va8tlruCpDt9a2bdUMMkNrWPbSwyiflFDtT1c1S+cGP9PO2pvrD+SmvgQiv9chnQ/K6LN/YN5UVdYy1bQgB3v0njopPuSBsWGJx01EHV+9/yx8MGka7UXr5fti2c05NbKp6vO8di3k9zv3U537rN/HwifJGGOevhtHrgOLrcIjDezVpE1PaanhXY6xbmnkjH9Wasn0Ok0duURI2z6MeYopfLpRP1VPWfeavNyEML+l94vKLFLy4px7xe85x+QEB9RoUPdnOuSZf+q0j2Ktr+3pQB7b5uxT1WqzItZ88FCHU9MviG/vCGF99S+xv4vVxPLZ4G0Kp0GDoKOLLGumcWcDKy25j5SS5boN+3iE2uShbdU+b3vC5j7YFQpMdXWuqxN0aQO73MLh0S1N+x73eTcbLMvGJ2410VmxxMSxllr+kl8XzMOhlE/u6b40IksVnn1ENCqwV4wepWceiF+LmM1cIJToX6otejqkX4vKtmbqUDwikgU3iKL/kmZfeEhehkHdYiDy98DW+YBYBQx2O39DJGwMKgxrp6KWWpc64iXuJJwKZgQxbtBfs4wOsNACSF22qm9yKJp5e7Kv8woAF2nFtj+oPt031pn29gJU0SbtU5tjMWcsP9nUMZRO+UUzHuMy6kS7CvjQbOIx2E9OLx8O2XeJUqscqo7p6HH2Mx4PUb/l097eP3/vlad/6TtVv6ld+e5J6otm1/OXP9OOsTc37cV7qSzkqvPKIKKf88/ojIYMdrtOWqvcn7ssw9Zu6iE0eeOM6bUJ1CoHUtKmux35NfQ3neF+ctiZf+q0j2Gxq+3pPHfmi7aqdk9ecaz95UF7yfalflt28L1Rc9S2U4aRsFm9DKikqvH52hwGQxaJ8W2Lwyxt9qXJFN9T59CIiZIs0Sn95BxLTKR03VeJuDaDk93S5dEuzlAc6fDpWvU391mM+3bGgmOvP3X5D1YFSVnDj5214RJ3bCb1uYl8n3rDDt2C+SdNZKy2ENuIkf7iF8Mx88YCDHgyg06WD0+xbqTy5RhjCkhfF4cXADFilDovZNN5FFn/Wh5k0XtcRF18zq0CHK38QcvzUTulntLpxL3Hd+tLajl86gBNPoDJ7RV5iZxrrJnljcMMfwiFCSz85FusPYopbZYg+4pAnWMM830p1OQ8Dd2ZD4MbAxB/HzDDks5UxrvKRz1zGMNNtN9FWfjxM23WcBqnHuZ/63G/9jj4xu8MXIcqbuoKAr/upKWYNqUP5T1PxE1ultk7bXnnj1e3w1Cdm9pmNpt2V2ir1FpFIX8Afs1xxEzf9tBVhaBPUWzg0bQiyp6+7ospv7Gvq6niTL/3UEXzq1vbjz9LhG2Ml53Ku/eahxCO3SZjYD5T6eLXJ2N+UbI/TOYu3cSoN+2ICDQTioNQQbM5eGqSD7dZpz1lY8zhj872dzOOin1dZt3ibV8XtzE4ygfk+KFm8TXLtnT3f53s7mT3STmmUBCzeRknfaZtAHwTm+6Bk8dZHZZnHQed7O5nHRT+vsm7xNq+K25mdZALzfVCyeJvk2jt7vs/3djJ7pJ3SKAlYvI2SvtM2gT4IzPdByeKtj8oyj4PO93Yyj4t+XmXd4m1eFbczawImYAImYAImMOkELN4mvQTtvwmYgAmYgAmYwLwiYPE2r4rbmTUBEzABEzABE5h0AhZvk16C9t8ETMAETMAETGBeEbB4m1fF7cyagAmYgAmYgAlMOgGLt0kvQftvAiZgAiZgAiYwrwhYvM2r4nZmTcAETMAETMAEJp2Axdukl6D9NwETMAETMAETmFcELN5mobhXP3B3+uXb35KWX/rLnlLbs3NHuvvbx6eL9//jRFxvJmACJmACJmACJiACFm8iMYN7i7cZhDsmpnmr+9Uff1/avuGVMfHIbpiACZiACcxVAhZvQyrZrS+tTXd989i0+OwzpljsV7xNMeATY0/A4m3si6jDwab22hHQH0zABExgDAlYvA2pUJp+d9HibUiQx9iMxdsYF07Btab2WgjuUyZgAiYwVgQs3oZUHE2DgcXbkCCPsRmLtzEunIJrTe21ENynTMAETGCsCFi8TbM4NAjwQEL+pwcUonjb9frW9PDPflQ9jED4qz66f3rq2svSG7t3d3iCGLjk7/48YT9u215+KS0667R06QF/UaX367/57+nWYw5LW154LgYrHkc/sHPvd7+eiH/RO/4w3XbcZ9OWF5+v4m3fuKFKgwcm8PGaT/5DevGe36XUak2xy8MVT11zaZUPwmLvzpOPSZuff3ZK2F58b73xRnr+rtvS9Z/9SOUXNq886N3p8Yv/V2rt2dO2ydqyJT//cXWNMBfu9wfpuk8d2Lef5LmONYmRD/JDvkinKq9rLk3kO2514m1v/C+3yxumd3/rqz2vjYPHmoX3VGUsH9jf/tUjErf+4rblxVXpgR9+u103KFc4whM7cVO9xe9YJ+FInPXLHq6C796+PT3yi3PSZR/4qyr/V3z4r6fU193bt6Xbv3J4teZv2yvr06o7bm7XB+KtuOJXe+t3q1WVD+VEOuRj4Y9OTdS30tYPe7UV4lCXybvqNee0Kd+UZf6n9qqw3puACZjAuBKweJtmyTCAPvTTH6a7TvlK+tW7/ij99pAD0qKzvlv9rV18X2VdomnJeT9Otx7z6UoMMWixRo4BjIGMAS5uJUGx4cnHq0GUOMQlnduPP6KyQRrdNvlBvOsO+3A14HJ845Ef3yt+Pv2h9PLjS9O1h36w7eOdJ3+5GgRJc/X9d3UkwaDLQIn/2MCW8sSgjb/aevEdAYsNBlUEI4zggGBCHCAS2CQWGJw5TxzCXfb+v6x8ee72G5Vstd+19bV0x0lfbIsPwmKbNK78yLvT9Z85aKpQbrXSs7deV7G95H1/VgldxcE/0swFd0eiKVVCBW6KT5ybjj6k8jMX5XlcPuP3Pd85sfI72sB/eL+6csXeaMFX0qNOkBbinHglfyViKN8FJxzVLj94wpXyW7/0obTghCMTgo008QXxmddXlcfVH3tveujcH1SCmvBKn/BPXH5ReuKyC9Ov3/0/qjoCSx7wwLcFJx7dLtsqQyE/yncTe9JCvC07/6dVfskT+Ve9vuJD70qbVz1Tme6lve6F6v8mYAImML4ELN6GVDYaDBlI8k2iiYH10QvP6xj01z54fyUQEBA7Nm9qR9WApEGeWaf7Tv/n9Ju//ZP08qNL2uE4YEbr9fXrOs6VPsgPBtOnr728PZMWRdPlB74zMfgx46KNmRuEKTNQe3btrE7jz8J/+U7lOyInzspJqElw9er7K8sfrfJ372lf62DErBFCRWnj2xNX/KrKt3xkzwDNQK109zraSssu+FklEvA3zpiRbwQ1PDRzI3sqT8RpnBkSK3i8eO/vFHzKHuF1yxcPTVd99D3ptbUvdlzfunZ195m3VquaoUXc3P+9b3SUR4exlNKGFY9V/l9zyPunzMDufG1LJeaqMr/+ynZU5Q/7D//8rDd5t1qVyCL85R98R7rpqE8kZtO0Ka1YXyXesHXjER/rDL/vC8dv3vc/K3vMImqDEXxh+dKSRTpdzTZTHr2yp63gL2X/yvJlbTsqK/xaev657fMcKP+l9toR0B9MwARMYAwJWLwNqVCaBgOJJgbCKNBIWgNfLh5y8aZwzBQx+A+yyQ9EBQNn3F5+7JF08XveVs24aJZC1/GZwRpxsP3Vvbe4lN9caFVxWq304DnfbwuiXn2Xf/lAKz+67ZVOfGXHtg0vp98e/Pfpuk9/qO17tEPeKJcO/q1WdfuxJJSJCx9mprhFGUVrtMttXfxgpm3X1i3xUk/HSuPmz38y7dyyuTaOhDECaN1DDxTDvbbmhWr2LJa7yo/Zsq3r1nTEo35Rz0o2EdCI+EsPeHt69ZmnqnjijoB6/o5bOmzh3z2nnlCJZ+pEzmvlDVdV11Zc+eu98QZgT1tBoCHSc/vKJzOI8QuJzlu8dRSXP5iACUwIAYu3IRVU02AgUcLMT2nLhRphSudY48Ugdd+ZJzcO6KU0OCc/uLWVb8yuMJDf+uXD0u5tr3dc1uAcRRGDLb7UzT6xfojrpMnWi++s2WJ9G8KIW875Oq0Op1KqZhuZ9Vv049OrGR+tA4xCjBkdREgpz7KXs0agIlRLLIgjYdYxwydj+/aIHG6lI2gQFVE4ZEGLHyVq2DdtEtZNIrEkuFRf42yq0qH8yTv1Ic666XrOS/WDWdvS2svHf3N+bV1RndR6s0HY4w+ctUxBfrKvKyvln7jeTMAETGDSCFi8DanEmgaDfIDKk8wHQ66XzjFbprVbrEvimNtY+WxDbl+fm/yoG+SIq8E5ijfEEOKs259mVHr1HTGoByVYa8U6KRbUxw0hxKwXAzbpc3uPWSUe5MDHKN5WLbipCiM/oh0d56wRIAiRbnmLM5GyFffcymbxP3a4ZU46CNReNmYf6wRJjC9fSyIshsvz2FRfS+XdZKtb+FzIR1t5nVR++mGf5y3ar6vXTfmP8X1sAiZgAuNIwOJtSKXSNBjkA1SeZGnwKZ0jHrNRrOthPRACjgH+3tNPmnIbNE+Dz01+1A1yxCsNzswiXvTOt6Y7v7H3wQkWiJf+4mxIr75zm/CxX/+imoFjEOdBhGiHdYPke/HZZ3bMQMrPKN4kHBBxdVvOmtuB3BZECCIIS/niHE9h5ref8zRYd7X6vjsrEYfPlNkj//GTN9eY5RH2fYYvM4ZxLVgpqHydK+JN+emHfV5+kVNdvW5qrzG+j03ABExgHAlYvA2pVJoGgybRRPKlwad0LneVBxVYy4PAQdB025r8qBvksClRFGfeJIrqbpt286UX3xF7z958bTUTp7VZrB/jFmFcMK+05GcUb8ozt+5Km9ZkxThiUXfbtGSnl3Obnn26WnuHiMvXhuXxxbdJdBJHtxmbbpsqj/G2ZlN9FcdY3tG/vG52C6+8UBb5pvIhDNsg7HN/Yhqyl9/ibsp/jO9jEzABExhHAhZvQyqVpsEgH6DyJEuDT+lcHo/PWtieL8guhW3yo26Qw05pcNZastIi9FLapXM9+b7v4QcED7NvTX7KXhRiKpe4WD/6wpOgPBEa42iNGGvvsDnMjYcKmFGrW/+otPQACTOb8QlZXddeDyxwW3bdwwt1umOvPN7x9S+0bYkL9SzfSuUdw+R1s1v4fsTbIOxzf6KvdfWlKf8xvo9NwARMYBwJWLwNqVR0uycOkDLdJJoIUxp88nMMarwuI1/Ez2tDeCqy6cnHXvyoG+SIWxqcdQ7RwKtE8nV3vBiVd3ux9eo7a8SYkYsbtx15olXiSjNvfK7W++0LzDo4bh8zC6mwVdo7d1S3dhF/yy+9oIMfcXgNRx6HeMwoIrJ4Zxqv24gbYopXrWx6bmU83XEMH2baci68g26vL3tnmjoihQ+kgXAjbP56mWpG8pbr2ukj2igH3s+Xv5YE37HD9fievibxorIdxcwbCPpln7eVgLFW7Ne211YrPXrhzxOvNul2yzqm42MTMAETmE0CFm9Dos3aJ2Z3GGy53caAoicFhyHeNKAyG8TLT1lzpZegci6+ELcuS01+9CveSAMBwLu1yDNvzedFqvill6NqdqlX3/GPNWHcAtQ6M9niM0KOjRcak6Ze4AprHm646aiDq7VlUbwRHpGFEEGkxZf/EocZS95rl8chrcVnn1GlwwMUd51yXAfz+KqMyqnsn3jygmH8w3+9wBiR1ct7+eIDD3pRrl5W2+Fvq1UxgR0iLX9JL+erl0CHX8gYZ/HWL/tBxFtde+X8zV/4p6quLP7X07NS9UcTMAETGA8CFm9DLAd+aumWL32qGvAZRKuX13Z5UIDkS4NPfo7bY09fd0UlPhiMESK8GoMF9flsVV2Whi3eSIe048914RtPWPKTX3o9Rq++834xhJRe+SFb+c87MfO08sar2z/BhLjiJ8d4pxtrmzqEzT4Y8lNPsiJ4eeCgmn2r+Sky0iFt8hOZM8NXmlWL3Jk544lRxBtCk/LiNSg8rJA/PRvj5ceE5Ylb7GCjjgnxEGTwUx7Z87n0RPI4izfy0g/7vK1EhhLR+Zo3whTba6tVvdbGM2+Roo9NwATGjYDF27iViP2ZVQJaYzWdlx/PqsNOzARMwARMYN4TsHib91VgfgPQQw6lmZn5Tca5NwETMAETGFcCFm/jWjL2a2gEHr3ovPTSIw9OeXiAW6m8L4/bmvmP2Q8tcRsyARMwARMwgSETsHgbMlCbGz8CrIlivVh8eIBF/axLRLjx4/R6GGL8vLdHJmACJmACJtBJwOKtk4c/zUECLFrnt1XjwwM8FFG3mH8OInCWTMAETMAE5hABi7c5VJjOigmYgAmYgAmYwNwnYPE298vYOTQBEzABEzABE5hDBCze5lBhOismYAImYAImYAJzn4DF29wvY+fQBEzABEzABExgDhGweJtDhemsmIAJmIAJmIAJzH0CFm9zv4ydQxMwARMwARMwgTlEwOJtDhWms2ICJmACJmACJjD3CVi8zf0ydg5NwARMwARMwATmEAGLtzlUmM6KCZiACZgiUy7NAAAgAElEQVSACZjA3Cdg8TbNMt64cWPynxm4DrgOuA64DrgOuA7U1YFpSo0p0S3epiDxCRMwARMwARMwARMYXwIWb+NbNvbMBEzABEzABEzABKYQsHibgsQnTMAETMAETMAETGB8CVi8jW/Z2DMTMAETMAETMAETmELA4m0KEp8wARMwARMwARMwgfElYPE2vmVjz0zABEzABEzABExgCgGLtylIfMIETMAETMAETMAExpeAxdv4lo09MwETMAETMAETMIEpBCzepiDxCRMwARMwARMwARMYXwIWb+NbNvbMBEzABEzABEzABKYQsHibgsQnTMAETMAETMAETGB8CVi8jW/Z2DMTMAETMAETMAETmELA4m0KEp8wARMwARMwARMwgfElYPE2vmVjz0ZEYPv27enEE09MZ5111og8SOnKK6+sfMCXpm3jxo3p4IMPrsI3hZvpa+f+9JH0rVPvT9u375nppGw/IzAudQC31HZ+7/d+r6f6m2XFH7sQGKey7uKqL88wAYu3IQNW57X//vunlStXDtn67JlDPNABx79Jz1Ov9FSGvYi3Eqde4nXzxeKtG6HBr8+1ATDPT/55cFL9xeyn3fRn2aFFYFRlq/S9Hx8CFm9DLgsE2yc+8YnqjwF4Ujd8Z0aHzkIbomQQAacOZ9GiRTI11vteBiGFYYaOY22U/3nnnaeP1ezdIGLO4q2NcOgHqo+T3D4jlDw/+ecYdiaPqfv0D5PSzmeSxUzZHlXZzlR+bHdwAhZvg7MrxmRAYLDudfAtGhmDk/ifi7dBOw7Fm5ROXcKsSXSRl16ELDaa7NQVda/1R2wJP8rNt01HR39c6oDF28zXgXEp65nPqVPoRsDirRuhPq6rYTGwawaO/SRuFm/Na95KfErlbPFWouJzwySgfmfUAt7ibZilWrY1LmVd9s5nZ5OAxdsQaSPaNFvVy+yNko5Cj8Fe68xkS+G0j2EIqxmtus6T8LmtmKbsxn1JnNTZ13n5HW8l5r4ShnNsYqR47GPc6E88VgcW48km4XQdLuRD4epmymIYwl500UVdH1hQnusGTNJWutrHMsjTzH3jOizWrFlTlV3JRsxr7of8U7xuXF99dUc66vO3p4ceXp+YRXv/B39b7cX92Wc3p4P/6cbqPNfyhxNKM2+ySXj+sM+5uF1z7TNtm4QhDdLSxgMQpCUb7IkTt9xGfj2G5Vj1IzLTOfFir3aVx+dzr+WjuHk7iLaVdq/1Nbd18803V3VE+ZE9fcYH4vCX14sYRr7mYag7tIlYfxVW+9ynnB/pRLa5LfkMA9liX7cRLtrL0yMPLF9hL3sKH9ljn+v8lfIdl0SQB1g89thj1ax7bLOlviz6T5oxvPKleAorDvKVva4RR9dL5Sab3s8PAhZvQyxnGllsaDSwvJMqJRc7DXUsatRx0C2dUyfGXtejDzqXd27qiLhe2nLfZSfaJl5Mn88KF/1Wh6O8KT0+x05I4fI0FF574kRb4idbskOedY642M3LIz8n//NOU2nHPbYJl9uMYbCf5wf/OBfZ535gm8Hn6KOPbq87lG8xPeU15rOXMok+ciyh9dUT7qoEXLyOoEM0sWeToIoCLhdvEntRSBEmCjjS5Fx8QjWGUTqc04bd225/Xh+r+NFmKd124H0HObP8M8FgGOtYbqPX8lGZxfaQl4/S71ZfS7ZKcXUu1gnqF/ab/FC+CRfzjp1u9Zy4aocxrnyOdZaw+BPFjHw+6qijOtLOufMZm8QnjjZ8jPbwRWuPoz/KSzyHLcKedtpp7TYpfyIv4ubhSF/5xo62PL4+YyNuiit/uK5jwum64tXZiTZ9PD8IWLwNqZzVqEoNL54rJZc3UIUhXuyQ8s8KR6ehToZGHjtKbCMAuK4OQB2qPstO3HONDjv+RbuElZ3YaXFe+VG+S2xiWvGYdJWXeL7bMT7ID6Wnz4qb+8VnOmP2cauLH8PoWDbrBrfol+KU9rkvcIhlrzjyTWWXf+61TGRPe4m3KJS4VhJQnJdIkqAjXpOYI47SiIJO6WuP3SOPvr2yr/BKQ2G0z33QeexHQafz2ufMcvYK17TvtXx6abPyp1t9xVbeBvFRdbCuThAG23ncvK7os+zE/Jfix+vRD7V7ztX5rLSU5zoGeRp1nxVfaedMYjzSjH1MXd5kQzbrypz4ykdMJ4+fp0tYbEZfYnwdR/vKZ6mMFN77+UHA4m1I5Uxj6tY51iVFIy+JiFLjL3USMe3cFteIw16dhDoAdUolv6JNXSc8IoVrbHlaCif7CqfPdenhX5NIlN24V+cf43XLn/yQX+wVp2S7xDqGi8cqq1xwYaPOjnjGPIhRr77leeq1TKLvHEso5cIqiqkYJw8fxZuu5aKrTggSLt4W1Syfwue3UuUHvkbBqPPYq4tDmJyZPuftV/ZK+17Lp678ia/0lL7KXunpPGHZ6mzl4fLPTXGxqTagOpz7Qfzob+VM4V8pfp3Puc2Sz4UkOk4pvdh+xKquHeTp8rnOx9ynEgOFKTFTH4V9NvmrsLoun6tA4UtxzJfKSOnlcRTX+/lDwOJtCGWtRhgbWzzOB/Q8ybqOJjb2bmloIFA4GreO6SxiGnxW+NwXfS51VFyL57ET85kfq4NRh6NOK6ZBHHVuuX2Fy/eEJ57sc51zeQeXpyc/FC/GiWmIW/QrXq87Vjz5Ib9yOyrXWAY6J5/xMdpRmkpDNvM89Vomsqd9neAqCasotCT2onjTjFgMF481u6dwcZZM56LwI7ziKz38jud1Xft+xBu2xFV1WOUgPvm+l/LJbcq29ip/lWGeps6Tlmyp3KM/MRzn88+cI14pLudUz0i/rq/CB/kb047HeR1u8pl40aZ8zhlE+zpW2OirzmGTLfZ3iqd9TJdzdWxym8QTK9nK86zz7PP8559LvPGll75N+Yzp+Xh+EbB4G0J5NzVgXWtqbHUdjeKqQ6vrZPIsqENmYa3WTKnjwFYvdvIOTmkQX514nd8Kq706QeWD83neFLYuXV3HRuy0dV55Jp+l9Ain8yoL9nlnTDixwma/W+5fzrrOds6jm2/KQ56nXsskz1edeKubecvjR/FWZyvG0ayahJyulcSbrklIKk7dzJvC1+1zZnk42OYDaClMU91R+eTln9vhs/yJ7SOe72ZL8RUu/4ytOj84r3zkdTf6im21+3g+Hud1uCldrkWb8jlnEO3rOPqsc4ovBk3tgDDKM/Hr2MimfMrjETcPI3/Yl9p6zHOebh3/mF+lp3zG9Hw8vwhYvA2hvGODLJmLja90va6jyTvDbunINp0AHS0viyVtbRyzKJeOSx2SruX7urTi+V47EoWLaeZ5I311dk2DRKmDk311yPoc08O+zpMHtpItzsu3yK6K0MM/bEb/sRHtKI/xHGbxCcEgn/lcEqnyTeHyPOWfe3C5ClInuHQ+zniVbEbxVifMYry6MKTD7FmceYvxomAjTNMMW4wXj3thlJdbjM9xr+VDuFgfcjt8lj8qU4XReWyw1dkiXhSbeTzi1uWH83m7UXryQ3W2Wz7yutnks2yqHcjnnIF8iPvos87nDORLXV6ULvE5LuUNm7ENYkuslG6eD51nLx9inpRPPSEcr+XpYUPhla4+5/mK6fp4fhCweJtmOasxxc4gN1lqlDEMjbyXNW9KSw1ZNrAfOwHCMeOGzXieY85pNk7xS3s6h7xDI34cJIhHuCg6OEeHxqsF2OszPkdGyks8J1t5upWRff/UIcbOCxv4IC6yHfNOdJ1XXHW8MT2dw170LfrAMTZkR9dKvhEm2icsduM5xYsciRfzRDz5r3zGc9EXxY35z8tEPmsvkVYSTSVBhfi65LIn20+KRvGGTc2S5aLv0suebL8uhDilW6YSb/hEeG254NPnaIOwzN7FJ1IVX3txFDP4M5hqy6/rfNyLcaksup3DDmWj8lF6+qx0dF5+6nPJPnUlD6fP2KPOleoz56I95Sv6onOxzsrHuFc9jnHVnvK4eRtQ3mLcaDse408UVYobGciXGA4bpFs6R9zIR/HjOdKNrORTKax8ivEVnnN52+aa7JCOtjys7MYwCuv9/CJg8TbN8qazoSE2dTpqcKWGTPI02l7EG2HVGZKm/kodCmnlHab8KIXPMdA5yL72eaenOGKgcOxzHjGMOKizUjzS5C/3W+loH20pLWwqX8pn7oPOx44v50keud2MLfmpdOO+xEe+xHBKk2vKV54maendUfIZ+5y/8847O8oh90n2Y55IP2dU8i362STeCCcxpjVlEliykYs3zusWaIwTxZzEl67z8MHyJzZUs2mkJ590nT3p5BvnYphczOXhc2Z5PYRVzjO30Wv5EC8vb+yrrnJd/qjslZbOR190Dhv8UaeeeeaZaq9wCqPP2KPe5HVH56MvnCOe7LPnM3+qv/Iv34tjng+lE23macrnUtw8ndxeiYH6VOxxXWmX8iA2pXzHtLme+63r8l/piJuuxz0+1V3XNdnhM/4pXaWDL97mNwGLt/ld/s69CZjAAASaBvIBzI19lEnLr8Qb+26bxFu3cL5uAuNEwOJtnErDvpiACUwEgUkTM9OBqpnD0szddOzOZFyLt5mka9vjQMDibRxKwT6YgAlMFIG5Kt54yCmfrUK0lW43jnOBWbyNc+nYt2EQsHgbBkXbMAETmFcE5qp4I19ab6W91ltNUgFbvE1SadnXQQhYvA1CzXFMwARMwARMwARMYEQELN5GBN7JmoAJmIAJmIAJmMAgBCzeBqHmOCZgAiZgAiZgAiYwIgIWbyMC72RNwARMwARMwARMYBACFm+DUHMcEzABEzABEzABExgRAYu3EYF3siZgAiZgAiZgAiYwCAGLt0GoOY4JmIAJmIAJmIAJjIiAxduIwDtZEzABEzABEzABExiEgMXbINRCHH4o2H9m4DrgOuA64DrgOuA6UFcHgmwYyqHF21Aw2ogJmIAJmIAJmIAJzA4Bi7fZ4exUTMAETMAETMAETGAoBCzehoLRRkzABEzABEzABExgdghYvM0OZ6diAiZgAiZgAiZgAkMhYPE2FIw2YgImYAImYAImYAKzQ8DibXY4OxUTMAETMAETMAETGAoBi7ehYLQREzABEzABEzABE5gdAhZvs8PZqZiACZiACZiACZjAUAhYvA0Fo42YgAmYgAmYgAmYwOwQsHibHc5OxQRMwARMwARMwASGQsDibSgYbcQETMAETMAETMAEZoeAxdvscHYqJmACJmACJmACJjAUAhZvQ8E4Hkb4QdxVq1alVqs1Hg7ZCxMwARMwARMwgaETsHibJtK77747veUtb0nHHHNM2rp1a9Haeeedl37v934vsZ+pbcuWLemII46ofHnooYdmKhnbzQisXLkynXbaaWn79u3ZlZTOOuusqtwpe/6uvPLKjjDEOfHEEzvC8LlkqyNi+FBKn3P7779/h135wD6mgU/xmo5zX5UkvpFf0si3PD8HH3xw4gtFr9t085LzVl4WLVrU4ULOh3hNG3kgL5FbU3iulfLSLY6vm4AJmECvBCzeeiVVE+6ll15KH//4x9N+++2Xli9fPiWURFXd9SkRBjzBwHnKKaekAw88MD377LMDWnG0fghI+JQGdQRBFAUICMREFEUM8DfffHM7yX5FQlP6baPhQPajmMFGyf8QrX0o0YMw5Dhush3zjO1eBdww8pIzj/7pWHkQg5LfCqt9v771G17peG8CJmACvRKweOuVVE24PXv2pB/84AfVwHzxxRdPCbV06dL0tre9rXFmbkoknxhrAhJimtkpiR+Jg5gRxEUpbAxDvJI4ysMobfbdbCpuKX2ERrf4EjhKs+RfyY5m4rhWt/XCshS3lJdexFspTBPzmPdunAbNSyl/PmcCJmACTQQs3pro9HiNTptbp6XO/aKLLqoVdj2ad7AxIxCFSjzu5iZhu81EMTP0iU98YsrMVrQd04zHMUx+LBFCXY1bSczE6xxHn+KxwkmkYSvfuvkXr8fj3E78XMqLfMBG3VaKR1idL8XlnBiV2ndMK/ofj2MYH5uACZjAMAhYvA2B4oYNG9IhhxwyZcaENXCshXvXu96VVqxYUaXEIHPhhRem97///ZWoe+9735v+/d//Pb3++uvt6wwSzG489thj6Sc/+Ul661vfmhh0d+7cma6//vr0sY99rIrL+W9+85vVWjsNXvmsCOcvu+yydNBBB7XjfP7zn0/Lli1rP9gQ43LrF8H5jne8o0r3a1/7WiJ/3soE+hmkCdtNvFHO3cJET3pNvy5tCZNos+l4EPHWa36mkxfVYWzUbbDN2wdhFTcXnzGvXOsm3mK6veYlxvGxCZiACfRKwOKtV1IN4Xi688c//nEljm644YZ2SIQQa92OPfbYSpwh0E466aRKFH37299O55xzTjr++OOrWbtTTz21EmcaSBhkWBiuW1ULFy6sRB6fGQzPPvvs9L3vfS8dddRR1cxBjMegw6b0iPPhD3+4mkFgAEL08XfLLbdU4RQXXz/3uc+lI488sgp7wAEHVOnLt3bGfNAm0OsgLca5QGgb2jfDRbnns2MxTH7cS/p1M0vySXWMfUncxDSjoInn68QN54cp3uryovMxL3m6TcIYP2PZiI3EYF3+IoN43Eu5xPA+NgETMIF+CFi89UOrIeySJUuqtW3f+ta30q5du6qQumWqAYA969/+f/bePNyK6lr3/v6/N8kTzzlqzNF4bNLYhByMUbFvIk0EFKRvpFcQFVARlWhUREGNfRNNY2JzNRqNmmOXa4wSo5wYo8bmaECvqCgYUEGxd3zPW8m7HQxmrVVrr9pr7b32O59nU1WzxhxjzN+sXfNlVq21H3rooTZPWE3D6hk/0MBJA49hJ02alH31B4xZ37t3b1uyZElbe6zuffTRR23n/eSLd/AwmUEwcmUPDR955BHr1auXTZkyxd566622trCFCIU/lGXLlmUrhIMGDbJXXnmlLaZ2PiNQdJLOEzEQFBQcUWx8FiV/r0j8SqIlekaeyCdPQOaJN9Tj2vMCCD7wn4ui/SqzL/x98b8PlThEcRZziecjt3gc28fzOhYBERCBeghIvNVDz7WFCIIYotCBWMKKGyeP999/PxNRnKhTW0wunHRw3q/i+Q9G4LEnbCmykAbbxXgQi/jQhC/r1q3LVvx4jm0pIGlLO/pkvbafEag2SXNFqAhD2hYVO8iiWnzYQHh4UfVZ9um9SkIlT7zBEwUcr234qSSYYvSy+8Lrmn2vlAtsvF0cL5zTY9M4YjoWARFoFgGJt5LI49HpVVddla1a4Osf8I4b3nXDqhpW1ziRQCBhknr44Yc3+MG7ZbSLK2xI880337SFCxdmjzwxQcIGAu+TTz5pa8dJh354HLuJyQg+vGCMttV8RJ/d8biS4KCYqWXSp4CD3yKlUny0Zw4Y56IFPvMEZCXxlvJfLT/fpppte/riRRcYxGsc8XmdwzaPv/fjc87br9aXvHaqFwEREIEiBCTeilAqaMNHpwsWLMhe+verZ5wgsNoFu7xCu9QkwzZr167NRBts4G/x4sVtExDb0Q9X19gWW66ocaWNtmxL27x6ntc2f+ULQgHjj0m/lkLmRdtVEwnII0+I5eUFn3ltahFv7Av8FSkd0RcvuvLEnxdsyAHjVumnSH+q9aUID9mIgAiIQB4Bibc8Mu2o5xfyHnTQQTZ+/PjsfTG8N8bCv7QQ30HDe2v4Sw0onPBSQgpfCOzLjTfemE0ymChS7aq984YPJvh33lIxsWoU630O3X0/NUlzLIoKMM/QCwlfn7efiu9tkUMteVTLvRbxlrfS5fPz+2X3JbLM61uRPL0I9Dnn7VfrS1471YuACIhAEQISb0Uo1WBDgYb/ufsPL8DFG2+8kX0IAef46U98YhSPPznBcoKJggkTEQQhxBQ+pYrHp/g6DzyaxadaU+3wGBYvjPt4aI9PmqItVuxQUm0r1WeN9E9GIDVJFxU4uFZgy8Jx8I9ZKUB4fdCW21R8nmNb2KQKzl9//fXrnUKceO15g7y+od7/tQgcw4+PzXw6oi8xPlnGFUSuiGKLwpx8nr6/3EfOZY0LfWorAiIgAu0lIPHWXnI57fgXFSCYHnzwwQ2sIKjwFxkgnmCDLb425OWXX85sOenECRT1V155peF74dAOnxadPXt225/kymuHD05cc801bd8rh3YQlYyHoHlt8+o36FQ3rkiJJwoXjFPqh0KBQsLbRGFDcRHriTwVn+eYB4UK67mlbx/fCxTa+S18pr5EmLHoK16/8MF4HdGXGB955MWJ3Dkevp9xH748m3r6En3rWAREQARqJSDxVisx2YuACIiACIiACIhAEwlIvDURvkKLgAiIgAiIgAiIQK0EJN5qJSZ7ERABERABERABEWgiAYm3JsJXaBEQAREQAREQARGolYDEW63EZC8CIiACIiACIiACTSQg8dZE+AotAiIgAiIgAiIgArUSkHirlZjsRUAEREAEREAERKCJBCTemghfoUVABERABERABESgVgISb7USk70IiIAIiIAIiIAINJGAxFsT4Su0CIiACIiACIiACNRKQOKtVmKyFwEREAEREAEREIEmEpB4ayJ8hRYBERABERABERCBWglIvNVKTPYiIAIiIAIiIAIi0EQCEm9NhK/QIiACIiACIiACIlArAYm3WonJXgREQAREQAREQASaSEDirYnwFVoEREAEREAEREAEaiUg8VYrMdmLgAiIgAiIgAiIQBMJSLw1EX49oW+99Vb7yle+YtiqtAaBCy+80PDTmcrq1attzJgxus4606AoFxEQgW5PQOKthEtg6dKl1qdPHzvxxBPtvffe28AjhVaZEzN9SrxtgLtDKzC+GOe8sax2vlJy7RFvf/rTnzIRDyHvf1BfRpF4K4OifIiACIhAuQQk3krg2ZXE2xtvvGGXX365LViwICk0S8DRYS4ef/xxO/XUU+03v/lNh8Wo5riaOKt2vpL/WsQbRRVWxbDvCwS9xJsnon0REAERaC0CEm8ljGdXEm9cqclbJSwBR4e5gLhp9qPiauKs2vlKcIqKt3piVIqfOkeRqBXeFB3ViYAIiEBzCEi8lcBd4q0EiAVcSLz9AxKEVGrFrQDCmk0k3mpGpgYiIAIi0OEEJN5KQFyrePP2y5cvt4ULF1qPHj2sV69eds4559ibb77ZltWnn35qf/3rX23atGm23Xbb2b777mvXXXed3XzzzRusQr388st27rnnWr9+/bJz3h9Xa/x7Udj3IuDVV1+1008/PcsDscaOHWuLFi2yTz75pC2fuENBhRW9hx56yIYMGZLFHjlyZHaM/FHg45FHHrFZs2Zl/hF74MCBdvvtt9tHH32U2Xguf/vb3+zII4/M8vvLX/6SvVMYc0dslFWrVtlll12WsYENGN1yyy3ZubL/IUfGjv7j+TzxE+3gBz7xQw7sr18lZbtaVsLYhv6wzcsf9d7u3nvvTX5gAfG9XS35RGY6FgEREAERqI2AxFttvJLWnGz9JOsNOdFxwqT95MmTDT9HHXVUJtp69+6dTYhz5861d999N3MBUQQRBjEFO/gYOnSoHXzwwZmtnzRxDuIJW4gZCD5MsPPmzbN33nnHbrvtNjvllFOyusGDB9tFF11k1157bXYOYgliasCAAVn7Sy65JJu0ERcTeF5BLMaAaIT4RJ5oh7wh2FAgYiAGcQ65oR1ief/kMn36dMMP/EJcIref/OQnNm7cuKxuxowZmY/77rvP3nrrrTZhe8IJJ2T1GIeLL744L+W66imEkH+qxPO1irfRo0fb/Pnz295HZHteW2RU9J022vt8o0/0g3kzDupoh3GI15kX/YzhbVJsVCcCIiACIlAOAYm3Ejhy8vITn3ebJ94gXO6//37j6hQ+TDBp0qRM0GByhoA79thjs+O77767zQ5CDEIlTqrI44MPPmgLjRWpUaNG2aBBg+yVV17J6uEX7XyunLjHjx9vK1eubGu/bNmyTNDNnDkzE3htJ9wOxRts3n777ewM+vPrX/86y5txEOOll15q6wMMFy9enOWC1b4PP/ywbcWpZ8+edv7557cJWIZjLC8SyB481q1b1xZ/zZo1bFbqlqzAsNIPxRIFkM8ZCdEP7VCHfS+KmDj7iLHz+zxfaQufPgZtox/4rhSb+cd29IfzqfY8r60IiIAIiEB5BCTeSmDJCY1CJbrExIaJ/sc//nF2ivZTp061KDLwSBS2aPPiiy/aQQcdZCk7+sSWBcLt4YcfNqyaYUUPjw/hC19jgpgoKfHGOHlipNKkDGGAdnF17vXXX7dhw4atN6FDyOAxKVaWhg8fnj0qRltyIxesAEI4xsJYvs8rVqzIBCoeO19wwQWGR8cUw7F9Gccp0eX9xvO1ireU0PI+yAjjWK2wXco25om41WIjHthzvHx8xPDXmT+nfREQAREQgXIJSLyVwJMTat4KVXw/jfapSdCLsqJ26AJW6fC4Fat5EG5XXnml3XnnndnKmZ9UU+KNcdDugQceyAQgRCB/HnvssfVW9DwyCqooECgcKPz4WBaPUk8++WS74YYb7JprrsmEHzkwD7+KlorlxRvOP/300zZlypTMF8Qg9pcsWeKblrYfRU90HM+TQ8w52sFPEQGV5y/mgWPyjGODcz6+349+YjyOd0ro++ss+tGxCIiACIhAeQQk3kpgyVWm1OSF1bAf/OAHmbB48MEHs2icVKNIwYoR3kPDxHjHHXe0Tb4pUehX6OAUvtHurLPOavsAACden1cl8QbRg3fIaimczPEI1Bf2EY9i8fgW3yuH/PCYmCXmwjYUc7TjlrGiEMJ5sMMHLvCuGwTsxIkT2azUbSWhg0DxPI9jzqxHn1iw749Zz3GkCINNHiO2wTa28+di/GqxmT+2RWL7WNoXAREQAREol4DEWwk8vUDDqhLeSUPBJyzxUj1Wm/DuGR7xoVCk+Bf6Uc/Vqf3339+ee+65TPTgJf+dd5OBNuMAACAASURBVN45++Rm1tjM+G4cxJCfVHGMd8X42BAfFkCMlHjzwhGPbvFoFqIH76qxPeJhBQv55hVM+ojrP2SBT4/iQwmoP++88zIemPBxTJHnbSgGyIXHMSZjYSWTBcKQvFGHFcjjjjsu6zNtytxG0RN9x/PxmPbsK/rEgn2uVLIOW4g2P4Zsy7H3tn4/LzZs6IOCEL7yYmPcGCvm4uNpXwREQAREoDEEJN5K4kzhhYkO71/hnS5+ZQeO8a4XRREnTnyQAJ8aPfPMM9f7tOkVV1xhH3/8cZYZ2kFUwQdEDT7NiXb4Gg0/qeLRIYQa7M4444zs60fwzlkUb4wNnxBwEHtYbaPQQz0/EYp48McJPoWKggorbBMmTMjet+OnTfHu2gsvvJA1u/rqq7N8+WlWxObXilCsMTcex3gQEOgz3uXDCuP111+f5YZP6YILBCP8og/4SpKOKJUEEeKlzjNvcqQN+hLFW6wjE2+HOPAVbdlf2DJWqj1X5LxP1nn2rEMcijfmHoUe4sT3HpmPtiIgAiIgAuUSkHgrkSdelodw4gcFIJxmz55tzzzzTJtwQzhOqJgo8R1ufF8LYgdf5+E/MYoVKgg4nMMkyu9Pw/eY+UkVwvCee+7J7CBesPoEQYdJ1q/a0I5fSwKhBfGGeuSCYwg2+MZXkuC9NH5tSQoVBABs8R1vsKWAnDNnTvbhAbaBDwhFnMcPvvoD3yGHthQMngtEQiz0gfzwAx/4FC0Ywyd8QTBDxPnvyot+6jmmePHCx/vLO09OyBHjgbFBv70f7OOHYg+2+KFw8nGwz1i04zYKKy/CaJPyGe3gB+Ib22jv+wOfMWbMVcciIAIiIALlEZB4K49lYU/VREphR53AkJM4V3o6QUpKQQREQAREQARamoDEWxOGV+KtCdAVUgREQAREQARahIDEWxMGUuKtCdAVUgREQAREQARahIDEWxMGUuKtCdAVUgREQAREQARahIDEW4sMpLohAiIgAiIgAiLQPQhIvHWPcVYvRUAEREAEREAEWoSAxFuLDKS6IQIiIAIiIAIi0D0ISLx1j3FWL0VABERABERABFqEgMRbiwykuiECIiACIiACItA9CEi8dY9xVi9FQAREQAREQARahIDEW4sMpLohAiIgAiIgAiLQPQhIvHWPcVYvRUAEREAEREAEWoSAxFuLDKS6IQIiIAIiIAIi0D0ISLx1j3FWL0VABERABERABFqEgMRbiwykuiECIiACIiACItA9CEi8dY9xVi9FQAREQAREQARahIDEW4sMpLohAiIgAiIgAiLQPQhIvHWPcVYvuyCBpUuXWp8+fexPf/pTF8y+86X83nvv2Yknnmhf+cpXsi2OVURABESgKxKQeCtx1D744AO7++67bdq0adajR49skhg4cKBdeeWVtmrVqhIjyVUrELjwwgvXExG33nqrjRkzxlavXp11r4h4QxuIEf8DwYe2ZZci+ZQdsyx/FG5griICIiACXZ2AxFtJIwhxNnPmzLZJtF+/fjZkyBDbbrvt2kTck08+WVI0uWkFAvWINwoprCTFFaRK5+rhRr9dcSUwL3eMgQRdPVeF2oqACDSDgMRbCdQxeZ5yyimZSDvqqKPs5ZdfbvP67rvv2o9+9KNMxI0fP95WrlzZdk47IlCJQJ7gyKuPvqI4jOe703EeM4m37nQVqK8i0DoEJN5KGMs//OEPmTibNGmSvfHGGxt4/Oijj2zhwoWZuLvhhhs2OK8KEUgRSAkOPv7D49JqpRbbar66+vkUS/RJ4q2rj6zyF4HuSUDirc5x//TTT+2iiy7KhNldd92V6w2PTHfeeefs0epTTz2VvYg+depUW7NmTVub6667LvPz4x//uK3ulVdesUGDBtnpp5+e2eIxGd5pevbZZw32++67b/Z+3UknnbTBe3Wvvvpq1q5Xr16ZuBw7dqwtWrTIPvnkk8w/Hn/hXSlMYH/9619t5MiR672D1ZaEdjICeQIAJ/m+2muvvZYxBNNYUOcfc8Zj+qj0zhvGzPtADPjhO2+4dqZPn972zlu0Rx9Gjx5tTz/9dOaH7Zivf4cuvjuX139eR/Tl28Evfmjj3+lDP3HMdthGUUoBWsmGvmnj40c+tLnmmmvWi4t6n1scu2q5pvIkU/qqhz19aCsCIiACICDxVud1wJv23nvvnQmqPHd4J27UqFHZBAFBhvfj/CSDx6vHHntsNqH4yfnBBx/M6jCp+ViHH3549sEITBADBgzIbObNm2f40ATK3/72N8OHJXAONpdcckkWG+/g3XvvvZkNJ73jjz/eJk6cuEHsvL5013ryj5MyJ3Y/RtEGzFDnxzYeo70XECmxhDZe4EQfOI4+INbgC4U+/bXH6+DII4/McuT4pnyhHexZkAuEj6/D9cV48IH4/j8kaMuYvi/MDW1QUrxhw+sXNrD1fUFdKif69nmyPePhOFXY1tv5PFLneU348aadz5ccqrFP5aU6ERCB7ktA4q3OsecE42/IKZe8mXNi5SobJyLc2A866CAbN25cttIGgYeCSW///fe35557rm0yw2SJ1T48jkVZtmxZJtSwQod2zCm+Y0c7CMd33nmnbQLFiuCNN97YJvwyp/onSQCTbRxrX0f2fqKnI9T5yTweQ3Tw+kAbTvYUHLyGeIzzXpihDc55H2jjV+Lo04sm5uzbpeKzrY8PFjxmP/0WfYx+Gc/nwDbwRb6xv7ThNtV/notsY+7eDrZ5hblWssG51PkYk8e+3/QfGdG2Etu8nFUvAiLQ+gQk3uocY958e/fubUuWLMn15lfeMCnxMSpEGB69QsThsSa+aqRnz57ZhLhu3To74YQTslU6iC3Giqt8tOOk9+KLL2ZCkI+I4pYTBSYGnJsyZYq99dZbubnrxGcEKCj8BOwnb45RajJHXb3izQsxjJ/3hyxjXUq8RcGHdjE31EUBEY/BgNfSZ4TW38vzm8oBLT1fsuR1vb7nf6ywxf7TBhx8u5g77ZAffvJKXjvaM1/Ei4X50z98pfqdxwj5p/zGODoWARHofgQk3uoc848//tgWLFiQiaBK77zhHTWILk42EHMQa3jvDRMAfOAH76kNGzYsW3Hj+2585MTJwE9KSD/Wc8KZPHmyPfDAA/bwww+v9/PYY49lq2yYGCDezj///ExA1omi2zT3k22cvDkWnLA9FN8O9fE4iiGOIyfwGAv2MQ5seY0hRhQM8Zj5xVzY1guImE+qDf1xC5tUjvEapj37GMUx/wMS631f6QNbcPAxYu60TeXHcyk//hz28/ziXLwW6mEf4+pYBESgexOQeCth/PlpU3w5b2oFK/VpU4i+8847z7Bit3jx4kzIYfXtww8/zD5kgEnp97//ffZBA07enAz8pIT0Yz0nlGoravCLSTFOriUgaWkXfhIGw7j6lCcIUO/FRjyuJt44zrweYO/9AXr0CVtv43P3gxTb4RyvI8aLx6n43ifzgW9f8nKATUq8sS3y8Ndrpfiw9b8nMXf6RG4xP57DtlKuOM98yci35XjRf54vnPdjxLjIP+XXx9C+CIhA9yQg8VbCuOPDBnPnzs0mFmxXrFjR5tV/zxvEFFbcWPhhhDPOOMMOPvjgbKLAOUxKeH8Nj0yxOsc2nAz8pAT7WI9PsGJFDx9O+PWvf73eqhoe7WISQYmTYVapf6oSIG+8t4hJF+PlS2oy5iTvJ+loBz9eCKYEB2y8GPATPMZz/vz52TtuiMeYXgDUIyBiPvAbr0XPAfvIlfnyHPOK3HC+mk+0IcNKtpFtzJ25pPLjOWwr5YrzvBZiH3EuxqyHvc9J+yIgAiIg8VbSNYDvd8PKGx/vQIz5v7AwePDgNtHEkHwsig8McELCOTxixYcU8O4bHqVilQ6FE0WcMFP1jzzyiPErQvDFwZdddlkWA3+2i5M5tn4lg3lpW50ARATeX0q9w0SuXpxgcgdrP85RYMC+mniLAoCxOI68FngdcqzZo9ie9TEX1KfEhxeLsEG7eD1iBRlteR42sTBvz4jxWAfhdP3117c1Zd+8v1R8tI850XfkEZkzhh+nvFz9h40Qz+dF0efrkEPqeoGNj4cO5+XbBkM7IiAC3ZqAxFuJw49VNqx0YbWMfxZr6NChhu+UwrlYOFFgosUqDgvfh0M9Jwico32cmFL1+BAEvrsNwo1/ZzXmwknJTzDMQdvKBDg5x0mXrSAKKKCwBes4ScfjKCTyJvBox5hFtvUIiEr5+L56Juhj3vVFf76tF1dk7M+nfEXWXgCTCWN5/zjnY6Adv6fP9wF2bM9c4u+g90Mb5OULfEi8eSLaFwERaC8Bibf2klO7bk2Ak3UUA7VAqSRsqvmhYEmJGeQG8YGtigiIgAiIQOsRkHhrvTFVjxpAoJ7VL6TH1dK4OlNr6hBvXOnx23pEZa05yF4EREAERKCxBCTeGstb0VqAAFfd6hFeEFfx0VsLoFEXREAEREAEGkBA4q0BkBWiNQhQtGGFqz3CjattaC/h1hrXhHohAiIgAs0gIPHWDOqKKQIiIAIiIAIiIALtJCDx1k5waiYCIiACIiACIiACzSAg8dYM6oopAiIgAiIgAiIgAu0kIPHWTnBqJgIiIAIiIAIiIALNICDx1gzqiikCIiACIiACIiAC7SQg8dZOcGomAiIgAiIgAiIgAs0gIPHWDOqKKQIiIAIiIAIiIALtJCDx1k5waiYCIiACIiACIiACzSAg8dYM6oopAiIgAiIgAiIgAu0kIPHWTnBqJgIiIAIiIAIiIALNICDx1gzqiikCIiACIiACIiAC7SQg8dZOcGomAiIgAiIgAiIgAs0gIPHWDOpVYl544YWGP17+pz/9qYqlTjeawJtvvm9HHvU7e+wvKxsdWvEaQOC99z620+c9YgMH3Z5tcdzVy+VXPNH0vvD35o7fvNDVcTY1f/DD9dkK12WjQfIabJV7t8RbCVfQ0qVLrU+fPpnggujCz3bbbWeTJ0+2P/7xj/bJJ5/UFEXirSZcDTXu6jeAvImc/ap3ci3LT0MH9Z/BKNzAqOzy4otv25hxdzdF9OeNedl9rOQvXhfxuFLbrngujjevLfynAD/4DyAYxILfP9pgG4VGLeKNOdBfXsyYQ+oY1xD9YBvvEzFWyiblt5F1vOYi07wcYp9in/PaNape4q0E0hRvPXr0sOHDh9vo0aNtyJAhmYCDiPv1r39tn376aeFIEm+FUTXcsJYbAG54KSGQV9/RnamUO25o9dzcmTtjdLYbHfOrtOXNOt7cyxivPN+V8inrHPKvZbWmFoFQNMd4XcTjon66ip1nyL76ewHOx9+3WIfrECLIX4/ebyUWuN6mTf+dYYtC8RhjVvLBc/H6Z17IheW+3y1ri4W6lA1tm7XlOHieebnw95V9ZFs/hnltG1Uv8VYCaYq3MWPG2OrVqzOPEGsQbRBvY8eOtVWrVhWOJPFWGFXDDflLXOQGEG96TDavnuc7aouc827ezcqpo/raHr+8Ycex7epskH9nE2/tGZ+u0oZCiRN/SnBFm7z7Shy7lK8Ul9dff9fw40ve9e1tUvvx9wE2Ma9UuyI2qXYdVZfHOBUvlTs4YPWcgjjVrpF1Em8l0E6JN7h9/fXXbdiwYdkjVdgULRJvRUk13q7WGwBuArGgLlUf7co8jpOF942bkf9fuj/XnfbzJrdmjFeZ3JG/xFuZRCv78v9J4u9d6vfdCzHfxnuPgsG38XZF9nnvgo96C3zk/UeQvuvJlT7K3LL/YFqp5I1ZZ7tPSrxVGsWC5/LE2yuvvGKDBg3KBByEHMuzzz5rxx13nOExK36OOuoo++tf/9r2aDUl3j766CO76667bOTIkdk7dfvuu6+dd955663ovfzyy3buuedav379MptevXrZOeecY2+++SZDZ/aXXXaZoT3ezcP2lltuaTtfJE6bcTfc8TcA3Jz4Hoj/HxluDqznFje6Bxe9mqyHT39jwI2e7bCNN5vonzdR3nRSE7X3H4ct3mRp++z/rMomfebCCSiv3/BLPrDxhfX0hS1t4Bc/7Bf74/2l2tE/+13Jhr5p48cLfiJz2N1089/WGwfU+dwYH23zmPM9NzDlPtvFnOib/YHfWGIs2rJf2MZcirTBWDBH74uckCv3fU5sg/O+IKb3g8dq6B/HnNcDj9mW9b5ttKGt36Y4eH7VzsNXPde9zwVxGZtxeezt0C+OOc7HcWNO/rpBG9hhVQ1tyYl+vP+4T7aeJ+voB9tUrtGXzz2e4zH8pHzF6z51XdFH3FZqW60vPA8fyN/32TNBzNR4oF0RzjHnjjqWeCuBbEq84UMK1113XSaQILI+/vgfn1p75JFHDKIKj1gvueQSg1AbMGBAVvfEE/+4WUfxBkEFwYVHsCeccEK2f8YZZ2TCb9q0afbWW29lvUA7vGuHLexxDgJt3rx59sEHH2R2qPN+TjzxRLv44ouz9kXjlICsy7rgDQC/+P4XHr/s8Rc77+aVqufEgRUw3CRYeJNhHbbxZnfTzc9nookTRWoSSMVEDPaH/lHHCdnHwXn0efacRevdkGO/6c+zoT/YsqAOEzoK6tHvq3/xDE9nW8as5It9zvNN/74vqItcUcc8PQu29/5R5wvso3+cRwxeE9F3qk0cx1RM1PnxhR/Ph/x9W9+mCC/48zHQl1S+qI/9on/fnjn53xnW+dwRw9t4/74/qPeFvmJM8ERhjt5Hqg3t/Fgyp2rXPfOBj7iK7fnTDlvU8/rAvs+PdswTeaCAF/yfcOKitg88kDl9sW3cpsYQ/ugb9mTgxyX6YbxUvrRF+1Q+qMcY+5jxfTn6iNtqbXHe+419IUuMJWxZ0CbvuqMd2/KYbZu5lXgrgT7Fm//AwsEHH5wJp+OPP75tdezvf/+7TZw40ebMmWPvvvvZ+wiPP/647bzzzrZgwYJM5EXxtnjx4uw8Vsj4wQdsr7rqqizGgw8+mPUCeUCkseA9u1GjRmWrf1gFZJ4QgOvWrcvM4GfNmjXZftE49N8dt/wljjcu3ij8zSPvhpyqZ/vUzQH2nJhwnvtF+TNnnxvboi7eZFO58IadZ0vfjMV+sF3kxfjY4lz0y3b04+0RixMs4zG+t8M++hInU9p4rrSF3+gLdpXyZw4+15g/mdJ3pXFk21TMmDP74rfRt2/DXJmHb8f92B71sCdz2mEb+wW7OJbejoyYB4/ZZx77GHmxaeP7xzq/xXn8xBJz57HPgXnFPtE2ckTb+PtJW58D2kFE0G9ejpET/KfGIdrl9dX3LdrwOC8Xf555sw5btIMIwo/vK23IITLj+Urb9rb1fSGjVG7gEvvEmOxTEXaV+lD2OYm3EohSFPFrQrjFipYXU4899li26sXzcYtVsPfeey9bOcM5fs/bpZdemom0aM/jW2+9NesFYj388MPZih6+poSPRvE1JshxxYoVmZiDyLzgggsMj1kpBuGgaJwSkHVZF7wBxBsQ6/0vuL9x+A6n6nGjyBMZ/saCuHk3Rx/D76NNvDHxfC25wDZvYiKPyIE3QJ5nXL/N85vHw8fg5Jqa0BAD7GLOjI2cfLu8XFOM6INbP0aoi+MZfSN23jiyT4gbS4oVbFDPSQZbP96+DX37fscYKWaRFdvEfiEWfmLxY4Zz8Tjy8u2jbdFzPk7q+iML5puXg+fH2LHfqKc/8IuF9hwj+EROHCccMw/fln1n/qmx8bFTPtAm71rzbZkbtqnfGeZS6dph7sg3xkQe7C/t/JZtfB5kWa0t/XAMvA/2hfmTJdtgizrfr1Q8sPX5w8bHwX7Kt49T5r7EWwk0Kd74adO1a9fa+eefnwkuPL7E40gUiDEILqy8QWTFn6effjq58saVuGuuuWaDNvCBVTWs5M2dOzcThxBuV155pd155502cODA9T4wgRhTpkxpE4PYX7JkSZZfkTgl4OrSLvJuAKznzQadzLshp+rzJg74iTcSPxH4m0kKLG9mPi/a5cXMq0fevBF6H7jp8aYVOcSbItv5bYpHpXYxBnzBB2+kvq+pnBk7xiBX9oV2qfx4jtvYNsaN59GOdcjbjyPHDD5iiX7RV7T3tvF6iW3gE3UpXjiH9nGcIyvmxT7gfKW845jF4zz/iBNtGRtbH9/Xc7/S+ZgvbFP/YUjxS/lFH/w4Moe8reecioF2MY5v4/3GvvAcxxm5pQrPwy9LKhfmEa8Ltklt45im/KbapeqKtK3WF15HKRY+V/Y12rG9Z5XKtVF1Em8lkI7iDS7xHhreL8Pj0IceeiiLQvH2gx/8YL0VuZgCRRRX3niMDyzkFTw6hTA866yz2sQivrYEgpIrb2yL1bZXX301e9cN77/hUS4e6RaJQx/ddctf4CK/2LiZ4CeWVD1uGKmJA22r3bD9/xhjrPb4zWuDvOPNO97oyIc3uDxfPs9aecQY3hfGxYuZPHZo42/YOI59od9UfjzHrZ88mZ+/RvJ8oz3b+nHMi+nHIM8n+uxFhG/DfLmNvFCfYpY3jjGHvLzJhNdFPM7zj3yiLXP35zzroufJHTmj5OWQ4hf7jfZ5fff5cJ+xySOOGe3iNZoaG9hGfzz21xR9cht9sz72N3WN0LbSNjLKy72SD56r1rZIX3gdwTYW1PF3Js8X2tQyxjFG2ccSbyUQTYk3uIX4wocTxo8fbytXrsxWyPDpU9ThgwssEFNPPfVUJqhQRxFF8XbvvfdmwmzSpEn2xhtvsFkmAPEXHN5//33Do1OIN6z48VEoPxxB8YZ34N5555229litw6deeb5InLbG3XQn7wbAetxkWPJ+0VP1vNH59vDDmzDapArjpm5IsE/FQn2ldvVMYvTLfsTjVB9SOVZqV+nmCv/+Rl/JFnG9GOUYRJap/FL9QDtMAPxkJfrAkueb59lfxo65wY42zDnlk9cLJyK0S/liXGw9r9Qx6lKxaAuxzLzhy8eGDQrOwy7vumDfeP6fzdra5okQ9hd9TJVK52OfcJz6D1SKX9G2qZxQBx6+T9Ef28XY4OPb0S62j/5p57cpG44Dr7FK/Lyv1H70H49TbfLqqrVNnY994XHqWvGcI0vmxPapa5Q2jdxKvJVAO0+84XHpwoULM1F10UUX2Ycfftj2xb147wzvuOGxKr4q5KCDDsreS0M6UbzxkSjEWe/evbOv/4ANPlnK9+TwOBSiEH7xSVTExXfMoY7iDGKQ7REXH1zAytusWbMMj3qLxCkBV5d2wV9g3Cx8Yb3/xcZ+aiJL1fOGEW/MuKn4uvjJLH/T4o2WN17mFHNF3qhL5YZzyKW9kxhjeg6I5SduxvCfNk3dUPPagQf9Ix4/VQi/ZOD9RYawQ3vPlTmhLvJKjVeqPfse+5ryXWkcYZ/qO/oB33F8fV+RF2z82OK8b1ONF2JHNuTq/fKaRTwyIwPGQ19Y57mwDvmypPrMGLRjHt4/bTwH+Gc/886jL74N7Np73SM/nxP7hC388lrnsb+GaYtcPN/UOHB8fSyy9HXw5fvGGH5LLmSLc2jjr7E8Jt4P4qMdxoYl5Zv+47UVfxfoI24RI69tKl7sCzn56xUxyJTXMPP0Y8G6GD/m2MhjibcSaOeJN7jGhwIGDx6ciSiIJ3yFyKJFi7K/ugDhhB/8BQa8n8YPN0TxBj8QVj/5yU/W+w632bNn2zPPPJOttGG17Z577snecYNPrKhB0PnHpng3Dm0g6CAE8X1wEHH+e+CqxSkBV5d2wRuA/0VHh1jvb4Ssw83C3whS9bxJwi9s0Sa2QxzeaHje30zixEZfiBcLbmz4SRXmgq0vsPcTBM7xpkke7Jvn4O1SeVfLBX1kO2wZC34Zz59P9Sty8+PBPsa+sN7HYDv48+xpi9ip+ug75pNqE23Q7zgG9Mv+ow1+mCfy8m18X9gm8uJ1hPM+r9gW1wK+CxA2lcYEubz4/97OckJuKPTFY/KL/UEO3jdzi9ch/bFPsV3qfCp2e8Qbc4r+8vrkmdKGW4wF+5CyQwz0/Y8PL2+zg30cQ++H/rj11wbYsh7beI2lxsPbs8+peH7c2D9s0cb7iGPpbeN+pbbV+sJrAOwQkzmkONebZ8y7I44l3jqCqnyKQI0EcJNMTRw1umkzrzShlB2rLah2RKAbEoBo8IKoGyJQl5tAQOKtCdAVUgQigbIFFSaUvP9R4n/JtfxvN+aqYxEQgX8Q4H+S4sqX+IhARxOQeOtowvIvAgUIlC3eCoSUiQiIgAiIQBclIPHWRQdOabcWAYm31hpP9UYEREAEOpKAxFtH0pVvERABERABERABESiZgMRbyUDlTgREQAREQAREQAQ6koDEW0fSlW8REAEREAEREAERKJmAxFvJQOVOBERABERABERABDqSgMRbR9KVbxEQAREQAREQAREomYDEW8lA5U4EREAEREAEREAEOpKAxFtH0pVvERCBliHg//wO9jtr4Z8qKuNb/yt92XMt/W/EV+EU/fLpsvpUS//rsS3ar3piqG3XIyDx1vXGTBl3IgL8hvVaJ0pMZvgLCPz7enFb5l9A4GSOGHl/dYF/9495tCe+j0M/flum4In8EJuFY+Jj+30yQD6+Pu57n6kJP9U+1cf49xi9X+ZcyxZ9P/eHf17vD4GzPXzHsYvx2U/UVyupfvs2HIdUv6NdmX/+jder70Oq7z4H7pfVJ/rr6G3RflXKg7w49thWG7NK/nSu+QQk3po/BsqgCxPADRA3wlrFW16XeZMt48ZKEeMn89TExZicCFPt8vItUg+/PocibSrZkDkZMd8iogg21ewgSKLQSE2gN938fPYH1pkr+hknxdh3ip1qOdBn3DJGimccR7aNObC+yDZ1vfh2RX2nmHo/te6n+poao5TfsvqU8t0RdbFf7Duv/yIx7/vdMsMYsKBtvFZ5TtuuQUDirWuMk7LshAQoGsoUb/FGXU+3cYNOiUrEwA9LagKmyKhlgqA/vy3LD32SOXL2pYg4QF+46ubb+n3693xwvsi4pNo++z+rNlghQ+6pcfF5xH1O4qvmngAAIABJREFUtrjW8NMZxBv7G8ci5o7jIuOTaldLXZExgr9K10Etfaolt3psY7/aI95i/M7Yz5ijjisTkHirzEdnRSCXACYBTKK/vPn5mifjlNMybsreb7zp8xzypnjIu4mzHj7qKSlhWI+/PDHIfCsJCfSlWn/yREYey9iXIjEqiYfoj8eeo9/neWx5/UQGRXLyfvx+pVz9deTbpPbzuKZs21tXdIzK6lN786y1XewXxxn9aG+hj3ittNef2jWegMRb45krYgsQ4M0PN1DcACmGfNcoNCqtlnj7PD+wQRz6wbbaChLaxJs+Y/nJizmmJoJUe+To86h08yejSjbMiVuKMB/DrzLl5ct2yDlV8tpF29hntsvLx7dnDtX66/n79kXHGP49E/hAnc8R+8wDfcrj4uNzvOgH1zQet+Vda0X9IgY48lE02jEGtv7aYw7MnfmRLfuRssO5yIV2jFdrn5g3VlDhG358bpX6gtzjmPI+wby8L9jHfqLO9yvGQz6o823Z15hrZvTPf9CGufh67XcdAhJvXWeslGknIoCbH2+auAHHGyFv2pyYeFOOkwu7lHczx3n4x42YvlAX32GhH79N5UV/nJA5OWEbC9r7fOMNH23gB3apkhc/Zcs69NH7Ixey5rG3QVvW047+uEW97wvr/Zb98Zx5vkj7Ijbwl7JDf4qOMWxTfSEDz4bXnZ/QOfbsG7bsu28LDmiXZ08x5v3k7cM/7PHj+cZ+p/oAn+wH2KGk7CLXMvrEvGfPWbTeO2PMx48DebF/2EZ2fE8ylX+qn6iL/WJbxslrh9xxn/CFecf7lbfRftcgIPHWNcZJWXYiArhp+psfJiB/zBskJxqmzsnE33R5LvpkfaU2tMnb8ibvJxj4w0TEiRfH3I9+fL/y8vA2vj0Z4Hy9BT58H3Achc7Vv3gm60dkjtjkkOLuc4tx/Lk4geIc+0hhVKSvsIkTeh5bH9/v5+XJflbLA32J/FCXYpfKF7nk5eDz9PvsYyo3zzavD2TNHFN23g9i45j2Ppda+pSXN66lOI6MyWu1EqNU/mgf+xl94pht/fWcqoNtLMjJ36vieR13HQISb11nrJRpJyDAm7m/ccYbImxSgog3WNjHUmmiqXSzRR4UD9x6/4zJc5hY8AiI+eXlivzgp9pElDeJ5fnl5MR8sE31Dzwq2SA3fx555DHEuVQMPwbMy7Pz5+GbLHy932dOKR/0j5yRjy+wr5ZftE/lwrFOxfftse/7w3YxL9ihLooU9qVIHMbNux5w3vefuUTfjIm8UVJ2HdEn5I3+RzaIxVzYx9gXtMF4p+xS+aN97CfqfL9wzLY+J7aLYwV7FtpEtjyvbdciIPHWtcZL2TaRAG9+8WbsJx+kx5u2Fxd+P9488yYI+Io37jK6j/woForGRh6+D34/NWG0N2+wgW/POPJNMeDYRLas9/5S7cEk1Q/aFu1PKldOtmROn9wW9U17xKhXvPk8K10DKS7++mFO1baIwf8wRFufC1mhzpc4jik7z7GsPqXyZi7+d8Dv+3FmHjjv61P5o7/07a9X3y/YsC3GIRbYMpdqDGNbHXctAhJvXWu8lG0TCeBmyRtj3hY3z9QNv1LalSZD3IBTE3Ulf9XOIUf8oHAiqHajryUPTkDRZ7W8ONHFSQl+/MSX8pPHnP2LPqOPav0DryLjgDheBLJPldpWi100V/a1CHfPlO1SjGJ/kIu/fmJuecd54wN73/+8a4f1la5bP0Zl9Skv71oZMH9eGzyOY8V69pO8/fVTqW/kj3HDPcr74TltW4OAxFtrjKN60UQCfiJEGry5xhtzXoqVJoLU5Jnnp0g9xYSfqBHfTw7wE+1qySNvwquWX4wJe05m1cRbqg9oj7yrtWWMSuOV5z/2KV4LRdrVwhbxECOOF+qLXnfsL3JDicdZ5T//gQ0FB6rqHdvIOMaOx8yF1wZzTvXVs87zA3+19Cmvv3GcmWelLXPGeOflF/vJfP14ez+V4uVdJ5Xa6FzXISDx1nXGSpl2UgKpGznq8D9f3KhZcMPGd8Jhy8IbMezzSpxsYFfk06bwjU+3sTAWJ0DWc8JgDqmJhXVRCKFt/ERbigdjVdqm8iNHHzf2HTZeYPgYfkL39X6f/fdj5c9jP/pBG3xIwhe092PO/lTyy/a1jDH66ydz+mA8nGdBnb8GUJ+Kxdx9W9Z5tnmxGS9vS8beV14uiOE58trzK0mpvsYxYv719Al5px73Mn4cB8TED0q8TlHv+1+kn2Tk45AH+ssSxzllQ1/+d4ntte16BCTeut6YKeNORgA34dQNkZMHJh3+8MbOLnBSi/U8zy1v9PTjb+a0iVtOMGyDbV4c5kFbPzF4v6inDbapfsdJ1Levth/zQL8j36Is8iawmAOY+Ek1nsdx7BN9exbRR4q/t4+Mi/YLdqnxZzycZ2Gdj5tqC3tw8HbIz7Nhn71/xqm2pQiCP1wzjJO6fuALsWkDrvyeNTJjv3wuOBf7Vm+fmDe2sZAH88TWx0du/ly8Por0kzbeL+p8v9Bv8vDxyMrnjbo85t5O+52fgMRb5x8jZSgCIiACTSdA4QWh0CqlFfvUKmOjflQmIPFWmY/OioAIiEC3J8BVptRqTleF04p96qpjobxrJyDxVjsztRABERABEfgngdQjO//4zj/aFDQREIFyCEi8lcNRXkRABERABERABESgIQQk3hqCWUFEQAREQAREQAREoBwCEm/lcJQXERABERABERABEWgIAYm3hmBWEBEQAREQAREQAREoh4DEWzkc5UUEREAEREAEREAEGkJA4q0hmBVEBERABERABERABMohIPFWDkd56SYE+LUI+HLPjir4Lq34jeqpWMgh9a3tKdtYV0/b6EvHIiACIiACjSUg8dZY3orWxQl0hHiLYi0e5yGLAqyWLx2NbfNiVKpnPH6nV6U/uxP/7FUlWzJOCdjoJ35pbDyP3Kp9zxjanPvDP6/3N2fZb+bCPsZ4tPN/Cqm9gpq+tBUBERCBagQk3qoR0nkRcAQ4mUP8lFWiWIvHeXGiAKOYyhMY3k9s688V2ScHHwsCJiXKEAvipygzCqEo3ijM6CeVQ+qPgVcScHmxwCD6J9+YF3x4wVZrf4vwlo0IiIAIeAISb56G9kWgCgFO6BQQVczbdboriDcIlihiKG5wjiUKLtbnbckXgiv6BxcvFuED4+CFU8pviicFFlfUYiz4QT+iGI39Yb6+z2ibipnKTXUiIAIi0B4CEm/toaY23ZYAJ+vuLN4o0qKQwkURRV08rnbhwB5+o/jJ4876KJ58nFQOvs7v+3YxB5xjPI5/FHNsn+eT57UVAREQgXoISLzVQ09tux0BP3ljgubKTXw0RzvY+JISPlEkxGO0pz/Gw4oQHhH6VaeU76JtfY7V9vPioB36y9Uq2kUGef4hhKZN/51hGxnkrbAxBuzzCs5VOo/8all5Y46Ix3GJfawWMy9X1YuACIhAEQISb0UoyUYE/kmAk/XsOYvWexGej+E4idOOxwSYEhuY6L14iMdc3fG+GK+aeCvaFvkhLsVhaovzLDFHX0/xRgbI1fv2ObMdubCP0T980C/bcAtb/KQK/OW1oz1sPH/WM3/6Zo48ph3a+z4hV39MO21FQAREoCwCEm9lkZSfbkEgTui+014o0A51vqQEAMSAFw+p4ygY4DOKhjzfRdr6HIvsUxR63xAtELUUS7SBEMQ5FrSJ4gZ9qcSgmniLbSk+fX6MH7cxtj/PcazmDz5oE/vm/WlfBERABMogIPFWBkX56DYEOJl7McLOo44TN+0wqfuSJ7Ci+OAx/VSLhxjRdy1tfY5F9704g3CBUPIii+ejgGJerPfcGBvnyAB13i9tuIUtfbGOW7RjbqyL2zzxlsoLthxj+InMURf7F+PpWAREQATqJSDxVi9Bte9WBDgxY2KPxU/2tKtXvFEAVYuHXKKQqKVt7Et7j70QqhSf4uz119/NVuoiJ55Hn1A8W59b7LM/x/28tjzvc2Zd0fFDW640si221WJ6W+2LgAiIQK0EJN5qJSb7bk2Ak3qemOJETlERRQnr/UpRFCr+uFq8SqtAtbTFoCIuH/2ltj7n1EXAvrHPjM9j3wa+8INzqVi+DjZ5QrBSDMbLa8vz8O9X+VBfqY23Rx9iW7RnXqnrhHG1FQEREIH2EpB4ay85teuWBDgpp4SMn8gpZKIdRYGv9+0A1R/n+aFdJfFWS9syBjO12uT7whhkCBGUV2K7vL6kYkaf1Wy8GGPbvBxjHmhLwc622FaL6W21LwIiIAK1EpB4q5WY7Ls1AU7qWBnCBM2CSbxaHSd+2EGcsEShEo8RB2282GFdJfEG/7Sr1pa5FN1ChOKrSlgoSn0cnCMvX4/+pQQPfWEbGaCOfcEWJfrGMdqBM0teXjyPLXJLrZ6h3vOlrR9n5oC4LKxL+aSNtiIgAiJQDwGJt3roqW23I8CJ+Y8PL88mfEzk+ImTPMFgUvc2z/7Pqqydn+yx7yf6eAxfFC70BRvU+bgUh9530bbMt+iWooj5+DyiDzKjre9rtOVxigHORQ5eFOI82jEOtxR79B23eeItFS8lOsmd8bCNecWYOhYBERCBeghIvNVDT21FQAREQAREQAREoMEEJN4aDFzhREAEREAEREAERKAeAhJv9dBTWxEQAREQAREQARFoMAGJtwYDVzgREAEREAEREAERqIeAxFs99NRWBERABERABERABBpMQOKtwcAVTgREQAREQAREQATqISDxVg89tRUBERABERABERCBBhOQeGswcIUTAREQAREQAREQgXoISLzVQ09tRUAEREAEREAERKDBBCTeGgxc4URABERABERABESgHgISb/XQU1sREAEREAEREAERaDABibcGA1c4ERABERABERABEaiHgMRbPfTUVgREQAREQAREQAQaTEDircHAFU4EREAEREAEREAE6iEg8VYPPbUVAREQAREQAREQgQYTkHhrMHCFEwEREAEREAEREIF6CEi81UNPbUVABERABERABESgwQQk3hoMXOFEQAREQAREQAREoB4CEm/10FNbERABERABERABEWgwAYm3koC/+eabtmTJEnvyySftiSee0E83ZYDxx3WA60FFBERABERABDqCgMRbCVSXL19uzz//vL311lv2ySeflOBRLroqAYw/rgNcD7guVERABERABESgbAISb3USxQoLJmqJtjpBtlhzXA+4LrQC12IDq+6IgAiIQCcgIPFW5yDgERlWWlREIBLAdYHrQ0UEREAEREAEyiQg8VYnTbzjpFW3OiG2aHNcF7g+VERABERABESgTAISb3XSxIcTVEQgj4CujzwyqhcBERABEWgvAYm39pL7ZztNznUCbPHmuj5afIDVPREQARFoAgGJtzqha3KuE2CLN9f10eIDrO6JgAiIQBMISLzVCV2Tc50AW7y5ro8WH2B1TwREQASaQEDirU7ompzrBNjizXV9tPgAq3siIAIi0AQCEm91QtfkXCfAFm+u66PFB1jdEwEREIEmEJB4qxO6Juc6AbZ4c10fLT7A6p4IiIAINIGAxFud0DU51wmwxZvr+mjxAVb3REAERKAJBCTe6oSuyblOgC3eXNdHiw+wuicCIiACTSAg8VYndE3OdQI0s3Xr1tnMmTNt7733brk/J6Xro/7rQx5EQAREQATWJyDxtj6Pmo/KnJw//fRTe/HFF+3MM8+0ffbZx7bZZpvs58ADD8zqXn/99Zrz6woNJN66wigpRxEQAREQgc5CQOKtzpEoS7x9/PHH9tOf/tS23377TLDttttuNmjQIBswYEBb3eLFi+vM9h/NV65caRdddJGdfvrp2apXKU7rcCLxVgc8NRUBERABEeh2BCTe6hzyMsQbVtxuvvlm+/rXv259+/a1Rx99dL0/dv/ee+/Z3XffXdofOYcIxKoeHlVCODW7SLw1ewQUXwREQAREoCsRkHirc7TKEG/PPvus9erVy7773e/a888/X2dG1ZtLvFVnVJZFGddHWbnIjwiIgAiIQGsQkHircxzLmJwvu+yybCXs2muvLZwNHrP+9re/tSFDhmQrdli1w/7vf//79VbtvEOucPFdOm4HDx5sq1evzkxfe+217HEqHtviPLbz58+3N954w7vaYJ+CcOHChQYmBx98cNvKHnK94447srqUT+YVP7BQrR2SWLZs2XrvCO600042b948e/PNN9tyhM3JJ59sOIf4EMkPPvhg23msbP7sZz/L6nEe7xteccUV9u6777bZtHenjOujvbHVTgREQAREoDUJSLzVOa71Ts4ULrvssos9/fTThbKBqLngggsyIbLnnntmYuX73/9+Jk4g4q688krDo9hYPvzwQ/vVr35ls2fPztriEe25556bCZd33nknW/WDsIGPSZMm2Q9/+EMbPnx4Ztu/f397+eWXo8u2Y4q3o446ykaMGJG1wWPZtWvXZrnC5zHHHJPtz507N3uPb9y4cZnIIgMv3tjHSu0QHGLxe9/7XrYFE/iEAEOMDz74wF566aXsUTTeJUQdbNA3cECBQDv++OOzfHgeeSIufbR1sh079V4f7QipJiIgAiIgAi1OQOKtzgGud3JOCRekhJUwrIhBiPAHQgXlgQceyMTFyJEjbcWKFW09wCNXiC/8QLTkFQot/84bRMy0adMyv3j/juKPIgo5XHrppW310Td99ujRw6677rpMOMHmoYceMtT98pe/bGsL3/AFn/fff3/yq0KKtIP/JUuWtMXC8d///nc75JBDrHfv3pnYZF5nn312W/xPPvnE1qxZk3XhpptuyvLzK3EQfXPmzLFaBHXmLPFPvddHwqWqREAEREAEujkBibc6L4B6J2eKN6yg+ffd8NgPK0D4xCm+KgRCh+INK2I4vuuuu9bLHqIIIiV1zhtS0Hjx9sILL9h+++1nhx12mL399tvePMsL+aXO0ZA+x4wZs94jS+aKnFI/EE9k4FfeirRDbAgtCD3Yjx49OnvMizj0xfcJ8fgXK5L4pC3L+++/n626pfJiHfpVT6n3+qgnttqKgAiIgAi0JgGJtzrHtd7JGStb+MoOiAW8F5YqFEYUb9jCPiUsIIZwDtu8Qn9evGEFC4LH17E9VwH9u3E8xy19+hUunGOu+BoUiKz4g0exKfFWpB0feeIRJ4TbJZdckjHEyiPFGwQtVtXwaBVcYDtjxoxsxZJxscIGXjE3HK9atYpdbNe23uujXUHVSAREQAREoKUJSLzVObxlTM58DMp3wGJKFEZRvFVaecPjyLxCf16oUbylVtewIoiVtyOOOMLwblyq0CdzpA1FWJ4whR1FFAUX6oq0Qx8hyE499VSDCEah0PS+UI9Hpc8991z2wQW0Qd8hzLDFY90///nPWfuy/ynj+ig7J/kTAREQARHo2gQk3uocvzImZ64gQVTg5Xn/HhtWjiDucI7CiGIv7503fBChyDtveCyL2ChF3nnDJzCRT6rkiTcITOQec8XjzkWLFhkeXabEW5F2XGX0q31YLcOnSineXn311fXeicNjU3wSlquI/KQvuJMF+ocPWvj34FJ9LlJXxvVRJI5sREAEREAEug8Bibc6x7qsyRkv2mNlC0IHP3jPDe+7+T+TRfEGsXPSSSdldvHTpvhU5S233JIrstBdrrLxk5wQP3jHDgIM74ahPn7aFKuCXlRGbHnizQtT5op+4DEmV/5S4q1IuyeffDITavwkKR4/41OxXrxB4KU+jXrGGWdkq3XoE4QlmNMOXzWCXMk79rWW47Kuj1piylYEREAERKC1CUi81Tm+ZU7OWI267777sq+74J/JghAZP358Jsj8yhBs/Xenwf7II4+0p556qqJwQ3exevZf//VfmUCBaIFQ4/eipb4TDe+r+dgpZHniDbZoi1U7ClH06eijj27LNSXeirRjP/j1Jug/BB1W1bjyhvGB8CRPCDR8pxu+240F32GH77Lz322HrwkBi3pLmddHvbmovQiIgAiIQGsQkHircxw1OdcJsMWb6/po8QFW90RABESgCQQk3uqErsm5ToAt3lzXR4sPsLonAiIgAk0gIPFWJ3RNznUCbPHmuj5afIDVPREQARFoAgGJtzqha3KuE2CLN9f10eIDrO6JgAiIQBMISLzVCV2Tc50AW7y5ro8WH2B1TwREQASaQEDirU7ompzrBNjizXV9tPgAq3siIAIi0AQCEm91QtfkXCfAFm+u66PFB1jdEwEREIEmEJB4qxM6vlcMf3pJRQQiAVwXuD5UREAEREAERKBMAhJvddLEXyt466236vSi5q1IANcFrg8VERABERABESiTgMRbnTTxlwnwh9u1+lYnyBZrjusB1wX/ckWLdU/dEQEREAERaCIBibcS4C9fvjybqLHSIhFXAtAu7ALjj+sAwg3XhYoIiIAIiIAIlE1A4q0kolhhwSMyvOOEl9T10z0ZYPxxHWjFraRfLLkRAREQARHYgIDE2wZIVCECIiACIiACIiACnZeAxFvnHRtlJgIiIAIiIAIiIAIbEJB42wCJKkRABERABERABESg8xKQeOu8Y6PMREAEREAEREAERGADAhJvGyBRhQiIgAiIgAiIgAh0XgISb513bJSZCIiACIiACIiACGxAQOJtAySqEAEREAEREAEREIHOS0DirfOOjTITAREQAREQAREQgQ0ISLxtgEQVIiACIiACIiACItB5CUi8dd6xUWYiIAIiIAIiIAIisAEBibcNkKhCBERABERABERABDovAYm3zjs2ykwEREAEREAEREAENiAg8bYBElWIgAiIgAiIgAiIQOclIPHWecdGmYmACIiACIiACIjABgQk3jZAogoREAEREAEREAER6LwEJN4679goMxEQAREQAREQARHYgEC3Em8vvfTSBgBUIQIiIAIiIAIiIAJdiUAz9cz/9+GHHxp/3n//fVu7dq298sorHcbvtddesw8++KDD/MuxCIiACIiACIiACHQkAegY6JlmlYaLt3feeceWL1/erP4qrgiIgAiIgAiIgAjURQA6BnqmWaXh4g0dXb16dSbgtALXrGFXXBEQAREQAREQgVoJQLdAuEHHNLM0Rbyhw1CsWHLEM2O89KcfMdA1oGtA14CuAV0DugY66zUAvQLd0swVNwrGpok3JqCtCIiACIiACIiACIhAcQISb8VZyVIEREAEREAEREAEmk5A4q3pQ6AEREAEREAEREAERKA4AYm34qxkKQIiIAIiIAIiIAJNJyDx1vQhUAIiIAIiIAIiIAIiUJyAxFtxVrIUAREQAREQAREQgaYTkHhr+hAoAREQAREQAREQAREoTkDirTgrWYqACIiACIiACIhA0wlIvDV9CJSACIiACIiACIiACBQnIPFWnJUsRUAEREAEREAERKDpBCTemj4ESkAEREAEREAEREAEihOQeCvOSpYiIAIiIAIiIAIi0HQCEm9NHwIlIAIiIAIiIAIiIALFCUi8FWclSxEQAREQAREQARFoOgGJt6YPgRIQAREQAREQAREQgeIEJN6Ks5KlCIiACIiACIiACDSdgMRb04dACYiACIiACIiACIhAcQISb8VZyVIEREAEREAEREAEmk5A4q3pQ6AEREAEREAEREAERKA4AYm34qxkKQIiIAIiIAIiIAJNJyDx1vQhUAIiIAIiIAIiIAIiUJxArnh76623TD9ioGtA14CuAV0DugZ0Dega6FzXQK54K67/ZCkCIiACIiACIiACItAoAhJvjSKtOCIgAiIgAiIgAiJQAgGJtxIgyoUIiIAIiIAIiIAINIqAxFujSCuOCIiACIiACIiACJRAQOKtBIhyIQIiIAIiIAIiIAKNIiDx1ijSiiMCIiACIiACIiACJRCQeCsBolyIgAiIgAiIgAiIQKMISLw1irTiiIAIiIAIiIAIiEAJBCTeSoAoFyIgAiIgAiIgAiLQKAISb40irTgiIAIiIAIiIAIiUAKBmsTbSy+tsTkn/8EGDro92+JYRQREQAREQAREQAREoHEEahJvFG4QbxRwjUtVkURABERABERABERABGoSbxRtfiuEIiACIiACIiACIiACjSPQ6cTbC/9vmV197U02fPwM23rHfex//dv29uVtd7dRE2bZT6+52Za+sKxxdBRJBERABERABERABDoZgU4j3h574knrP2SCfW7Tb9jnNt3O/vcm29vnv4SfHe1zm+xgn9t0h2z7hc12sAFDR9qjf36sk6FUOiIgAiIgAiIgAiLQ8QSaLt7WrH3HTjh1oY2YNdy23m0f++K/72j/usWOttHmPeyLm/ewjTb/ln3x3/Hzj+ONt/66fXnbTW3bHTax08882d5es7bjKSmCCIiACIiACIiACHQSAk0VbyvfWGV9hxxmew7sY6ffPddGPrzAdh51oG351X+zbb6xqX1py+1t46/0tE223Mk2/o+dbOOtv22bbL21fXmrjexrO3zJdui5ufUbMsFWrFzVSXAqDREQAREQAREQARHoWAJNE29r166xo48eb1f/YqI9/sCOtnLRl2zpg1ta375ftu2238j+s8cXrMe3NrMttvm2bfWNXrbZtrvYl7bezTbb9ju22z672/RjJtvuB/SxTbbdy/boO97eXvNOKaQWL15se++9ty1ZsmQ9f+vWrbOZM2faTTfdtF596mD16tU2ePBgW7hwYXYavuCzSNuUP+SE2MghFsRALMTsqPLoo4/a/PnzN4h/+eWX2/jx47OfadOm2dKlS3NTuO2229ps2QZ+WdAWPngOvusp8E1fRbbIzxfwPO6448zniPOsr5YfztMn2+TlEWP4PLQvAiIgAiIgApFA08TbWQvm2tDBW9mr93/NVl7/RVtx9edt+TVfsFtmb2SXTf8P+/mJm1n/wd+1r/fcz7650962xba72hZf3dW22mEv23HnA2zEqLG2/4EDbJse37Xtex1qF1z8s9i3dh3nibSU8xASAAAgAElEQVRKAqpdgWpo1KzYXnRE8QbBQXGCruAYYgdtUgW23t7bgDnEDtviGPHy7H3bMva90KI/ny/284QX632u6MfcuXPbxGw8Zgz2U+KNRLQVAREQAREoQqAp4u3Pjz9lIw8bZQtO62PL7tncXrnlX2zZLRvZy7dtZE9es6Xdfv5Wdu+lW1mfgwfZllt91Xp8dQvr2XMP22uvPjZq9BF27IgxNmLIGDti4lTrvX8/233XPWzooCH2t+eeL9LnqjYQS341i4IO9c0ozRBvFBYQJRAXUbxFDrTPEyIpgRR9+OMiMb19PfsxN6wC/vCHP2xbaQQD2OQVnMcPRBoELAUdt1dffXWynufzmOXFU70IiIAIiED3JtAU8Xb4MXPtkIFD7aQZg+xXF3/N5h7TzyYO2cN+dvEgmzBkF9t2s3+xjb/4ORu6z9520eQx9peLe9k5R37TDh0w0Ab0HWjjDpthww8Za9MmTLURvQ+2n5x2uM2ZNt2uOPu8UkaTYo2POaN4Qn18jOltYntM6hCDXvxhf5tttmn78ediJ7zveM7nkorDXCr5jz7jcREhFcUbxI4XfFEgxRjxuEjM2MYfMx+IqmrF54Z2EG4QcMgBj3JxXES8MQ5sJchIQ1sREAEREIGyCTRcvK1cucIOGzfLBg8eZ0dMGGuzjxlrffsMs0P6j7DhA4fb5IMPtQUTBtve3/iynTh0tF01fbLdfkpfW37XATZpUH8bN3ycTRwzzSaNmGyzxh9t86bOskP37WWTB4+yacMn2d9XrCyFEQUTBBGEmhc/XjAxGO0x+ePHvx8XRRVs/coe3okbNGjQBu/ZpXyzjlufS4wDG+bi82fbotsiQgpi59hjj217VAjRFMUbV5qwrSaqIIAqCaZquaPfRR+9Ig7zie/eoR4/PvfUvm8Psbdo0aK2/sN/qo2vk9irNqI6LwIiIAIiQAINF2+/u/duG3zIWBs1+lg7bsLRNn38JBsx7AjbZ89+9r0Dvmc/GHuY/WjqoTZuj21tVv+BdsGYIXb5+D725n3ftdOPOMSOmTjZJg2fZEcdOty+P3aG/fTM8+0H4yfZVfNn21Fjj7D/e8/97FtdW4oefCAgrrJ5wcQgRcUb/UYxhTjwmyredzzvc2mWeENcPC6kgIk5xmMKpDx71Fd6fy76Sx1TvHmBVGk/5oJjike/n4rl6ygEveBlLlGg5dV7f9oXAREQAREQgUig4eLt/DNPs+mHz7bJk86zK8+Yb6dMm2SnHjnaxgwdZocNH27zpky0S6YMsIN33samH9THLhs/zC4Ys4+9ctOu9oNjxtj0cZNtSO++NmCvPWxk74PtzBPvsLtvus1e/Ms5NnfGNDv/rHNjH9t9DNGER5tRaHnBROdeYFGgUYx5UcV9/8iU+/x0Kn1y632zjlufC337fJmLr2PbolsvRGKbakIs2vMYgsivzLEe4qde4QZfFEZRlDGO31JwsQ4cUQcfKMw19T4bBSH6snz58uS7bTfccEPWV9rGbRR1zENbERABERABEUgRaLh4WzhriM2YNtOmTD7DRvXdxX7xo5/an+4+1aaMPcQmj55uZ838gV183AybPXqIzTtykl04/hC76+RetvLGbe2CE/a102aOt1OOOdxmHz7Rpo4eZfOnXmS/ve5ae+2Zs+3KhYfbjMmHp/rZrrq8x5leMNGxF1gUTJXEWy1iyvtmPG59Lo0WbxAd1b4ihHnGbRSEFFsQTWUU+isi3mI85ECBBVGGx6D40AHqKeywhW/0I/YF/nwdc0GdL3n13kb7IiACIiACIhAJNFy8nTJlvE0eM81GDz7Mhvbe06ZNnmo3/miGHTN1pt3w44fsNzc+Y/f96hZ75I5T7f9eO9+uOHGSXTRxd7to6s62z3d62thBh9iI/v1s/vFT7IQjJticyefY1Qt+aU89cLadOmekDe43OPax3cd54i0lpryIwqSc985bPFckuVQ8tkvF9cIwJejYtujWCxG2wYobvg4D/ttTuJoFHigQRu0RWnmxKYxq9cl2XBXkcRnijYIwbqOoy+uT6kVABERABEQABBou3i6fd6WNO3SmjR92mPXZt7cdsOuBduBeO9m5p59n9/3qAfv9Lxfbf982215+aFd7/L+OtGMOG2q9vrWTfedb37EdttvV9t/rQOu3X1/rf+BBNv+Eo+3sU+60Ky99wn5747k2a9qhdsj3Ol688Ut3KZJ4zHfjMOHniTdAR7v4RcB33nln3R9YgO/4jh6OU49+a7n8U+Ktmtjy4gwC78Ybb2wLyUetFC31CsE2x26HoquoeEMO/gMXdIXc8bj03nvvTT4SpRCj2GM7v3qHlTucZ39pwxxjPc9rKwIiIAIiIAIpAg0Xb3f91x9t+MAhdtDe+9tR446y75/wYxs+6BCbO2mSXXr8bLv/l3+xxbfMsBUP/Zv99427W//dvmbf+HpP+9aOu2fibcftd7ED9ulvO39nqB0/bbZdOvcJu+ys2+yGS+facUeMtbPPLOfrQgArb+UN57DixXfVINTuv//+tg82VBNvsT385L3vBluIPcbiluLPr7zBlitttGNeFJqwqbXkiTcKF7+liInizb8vFh+1Usx5P9xvr7ChMCoq3hAHOT7++OPr/aUH5IF65FjtsekzzzzT1ha2ZMFc2BcKQvYRW56rdWxkLwIiIAIi0P0INFy8PfGXZ23G0CPspP4H26TB423w3ntZn32/a6dNPMJOGjbC7rnqTvvvGy6w5X/oY4t+NtSOG/Jt22enHe17e+5pA/fey3bavqf12L6H7bzrSDt+ypF2yazf29nH/N6uO/v7dtZxR9g9d93d9FGkeKtHMDW9Ey2QAAQUfooUL7ZoT9EFAQjBBRu/RT1EF34o1NiWdakPMUAMwg/9S7iRmrYiIAIiIAJFCDRcvK16Y5UdNuAYm/jdQTZ60Cjr1XM367tPH7tq9pl2xfTpdu3JC2zxRRfbyl+faE9cN9muO3EP67vLtrZnjx1tzH57We/ddrOpoyD8jrE/3nytvb1iua1+41178o+P22nTT7PXXl1epN8dagPR5r/HrUODyXkugUoren7VC/txNRBO0R6PPCGyKNqwz+L9R5FI8ebt2Y5biTeS0FYEREAERKAWAg0Xb0jujO9fYiOHTLcxI2Za/z6TrX+fiXbO0afbzXPn28+mT7Pbj5tq10/pb8/8dLBdctQ3bf9vbmkH9eppZ884zH5+zky78LTptfSxYbZ8lMpHmg0LrEAiIAIiIAIiIALdhkBTxNtz//OijRw620aPnGNDBx9jQwdNszGHHmE3fn+hXTl1ih3bbz874ZABduSAfW3ovrvZ4L162vADd7Oz50yyH82b1jY4L619yab/Yar9y88/b//5qx1sweNntZ3TjgiIgAiIgAiIgAi0IoGmiDeA/MlVv7JRI46zkcNn2vAh02zYoZPt+IlH27UnzrXTh/W3Prt+x/bdfns7uvcuNn3IgfaVTTe2b33ta7bgtDOycfjDaw9mog3Czf9AzKmIgAiIgAiIgAiIQKsSqEm8zTn5DzZw0O1tPzhub3n/vffsF5deYmedMMvOOPYYO3XGVJs3Y5pdNHOO/WTWkTazfy/79lb/bqP36Wl9d+5p//r5jaz/d3az5S8syUIOuKffeqINx1h9g5BTEQEREAEREAEREIFWJVCTeHvppTVGAYctjusp765dY9dctNDOOeFoO+eEo+zaU8+xa2efYT+fOdMumTzIem7+r7b/FhvZkfvtZfNGDrMfHzXWPljzjz88z9U2rLThB49QWVdPTmorAiIgAiIgAiIgAp2ZQE3irSM68v576+z+39xi5590tN166hl26bRpdtLQYTZvyP52wA7/YcN33dl+dMRk+9ERh9j/OekA++0dt2RpcOUNq23xEWpH5CmfIiACIiACIiACItAZCDRdvBHCqy+9YLdeep59f8hAG9JrTztqv542+cDdbcJ++9n5hw2xnx83zOZPH2CThw3ImuDDCVxpi1v61FYEREAEREAEREAEWo1ApxFvBPvm31faQ7970K6cd6JNHT7UpvTe3S6a3M/uuOI8e/zhB2zVytcyUzwmjQKOq3D0pa0IiIAIiIAIiIAItBqBTifeWg2w+iMCIiACIiACIiACZRKQeCuTpnyJgAiIgAiIgAiIQAcTkHjrYMByLwIiIAIiIAIiIAJlEpB4q4Mm/hyW/oZpZYBLliwx/LmwbbbZxsCrPQU+Bg0aZNiWURYuXGgzZ87M/mZpGf46iw/8/VVcj/jbuioiIAIiIAKtS0DiLTG2nAQhOPxPnPAl3j6DR5HmhUOq7rMWxfe6u3grypHXrR+D4pRl2SgCHCd/b8E+/lNRpGB8a7FP+az1PzCwj/lW+o8rc4xt2nNt1por/8a0j130703XOzYp1qoTgY4gIPGWoMpfYL9StG7dumy1xt+wJN4+g5cSGGXxkXj7x+qln/jANv5ngtett/tshLRXjUAj+FEEpcao0jmfO+wmTJjQ7lX/WvqJPPOEYrVzUTDhmoWvVN99//x+LbnyHhR/L+Cv0jnGy+OPtpdddhnNtBWBTkFA4i0xDLxh4GbjC28AvPmUJU58jFbaL4sPuOux6fpXBtjGSYrXLa/P9VvoqBqBjuYHcRDHLOYU7zHxPHKcNGlSJoDa+4gc14f/T2iMwWPYRQHGc9zyP7Xomy+ptnm2vl3cL5prNW70mzcGZd2rGEdbEehoAhJvCcK8ieMX2hfefFivX3hPZ8P9svhIvKXZRiHA6xYTnkrtBDqSX1ERgqwr2eJ3iuMOIRJFU7Vex3tYnn0tLFK26EMUfoxdNGfa836bl2tRO7RP2RYVfnnxVS8CzSAg8ZagzptRvGnEX/w8cYKbk3/fIk6mOPbnU48S4Nvb8IbNdHnDoU08TztsmXfqphlvsuw7/cb/oVNIPfnkk9kkAjvkynzgL/qADfycfvrpbROPz4/2kTdtGBPbamzRJrKLfuEj8iIj9htbzyty8lyjL9hGbt7e+0U97BEPWxbmE9mSs8+TkyQ5wo9nwPP0Hbewz7OJrBjDx/d8mXfsI2JGXzjGD/ufYsZcaRv7H9kzvs8v2iBf1OEaRr/xc9JJJ633+4b2iImS8un7zBzztmzvx9f3A/3GY7kYz9v7PBi70rjl5YK4RVaxEYP5+Njk+vOf/zxbAcT1gBLtU7nx2mH+eTmyvmiuiBXHGLkzV7DFaiX8oUR75BPbMwdtRaCzEpB4S4xM3k2GN1z88qPgl95POLxJ+xsBbHETYRvY4MbCmx79+Mkz5Rc3S7RFSflETB83M3T/RJ88hVzYjv2DLQvO+z7yhop3bngzhC3bsp+oizFxzveTMaId67llTEw60b9nC/tUvogZ+8Q+ow1zR1sWXgO047H3w7rYJ/jxvugT21RfUYd++DbsM7bML/adudE/84Evnyf8+jGkPbds59vgXIyL+NE3bZg7fwd4zBjYos7njGOMaZH3iWh7yimntP0eMG/vEzn6ftDG54PziOt9IT/aes6p/qDPd955p+9axX3YQzzAPwqZMQ6Pfd7I1+fMdl54MV/frmIi/xyD6De2YZ+ZH4/ZjseRu7/G0Db1e+HbxLjxOMUg2uAYdp4Bjn0cHPvcwJsc2RfYqIhAVyIg8ZYYrdRNkXX+lxw3DH9TSN2w4D7eTGJI+ubNEvY+jrfPu9lwAqAP3wb7qfOpuP6mh3a04c2RfnjMOKz38SOfVO6pOvrklr5jTJz3bGnnc4BNzMO3oY8U7+gvtkMcTMp8Bwm+yCvmgHMo0afvv2ePnHkc28CPP/8Pz5/Fjn1JtWcbbiMjxuD1zTxhFwv6yomadjEHtIn8cEz/0Wc8zrMt2jeyhF/0gfn6OKmxS9X5NkX241ihL/hhITPPFvveBrbRD+pg4/tGn6lt0b6AKcUN/GB84zjFXNDGC1S0gdD3PynmqTxRVzTXaBdzT+WPNsgVtmQfWeflpXoR6CwEJN4SI8Ebgr/xxBUHNMMNzN/UcANI3QSiHdrixoGbmY8BO/pNxWM7f2PNGribHX2w3m/jjd7flNln1PkSb27MO9ql6lP9jnVol+qPz6GSjfeH/dREhlz9xOE55PUb8WPfPS+chx/ExBY/KJVy9T7RjvYUf55D9In8PfNUX/P6wnrGzAKHf+L4se9sU6lf3j/bkYcPgzo/PvHY28Z9z8Of87F9Pez975b/PUWf/DHb0ZfnzP7464f2RbeIh3xQ6C8Vw9f5NmjH3DgejI02RXODbarf9MUtxtoLsZgL7GJdbJPKi9cYWTBeals0V3ChEIMftPPXWKrOt+F4FMkplafqRKBZBCTeEuTzbpTRFDcw3gx5E/ATht+nHX37Gy7r/I0ZNyG29zcjX8/zfut9xHzRlnGZL29avLF6X37f23mRwRhsjxgsng/roh1sfP9o57dok4oJGx8DOfqc/T77jTawY8yYj48bGXGc0Efsc9LAMce3SH+8DfaRD2Ph2MdBPqkcvQ/mHNvFerTJK4yfN87+2ok+GBf+ox9v67mjHseM5+1S+3m2PjbaIQeMu/eLOo4PbTj+PhZ9+WuY5+GP11MljrT3W9gzHmLwuqENmfm4sb84x/ipre8v/fotYxTJPf6+wXdsh2MfE/l5xjj2v3PMJa+e57GtJdc4ZjEv+ENM8sdxqn/+vM9F+yLQWQlIvCVGhjeEeMOKpjjvb1jxhhvtcQybeKOoFI/nGCfeeFIx8uroC3lHPzyHG12lEtvRFvW4Wfv2kQ9tyanoTTovJvwhBnn6fcZKbf0YVOo384M9ij/2EwJ8YELmhziQR6WCtmBFezJDO8TCMccbfvLYst+MldcX1hfJi3Ejy0pjEP1zfJkXt5476vLsaO+3ebaMDWYpTvCBvrBfPI7sUO99+dh+H3GiOPTnU/tow3ipGDFvXmdoxxLZsR5bnPP98+e4X2n8aMMtcvQCM7Jnfqhn4bXLY+SeEm9F8ihiwzjMhazidQu7yM6PB87n5coY2opAZyQg8ZYYFd5gcSOoVFKTQrWbaLyRwD9uHpgQ8uL5m1nR3PLy5s0NH4DghAJb3gT9DTnlw+fiz6O+qHhDf8EJL31X44UY9B35xJyL3oT9GEQfRfoEbnjZnfnQR/xUm/fl9zmG8RN75OI/eej7j/MsHEfEZqFfb4dzrGe+tI9b2nFcvB+eS/mAnZ+oPV/GYHt/zcGu2vXG9rBLXSs+Nq8TnzfHxrdNsUMc5ujbM77f5rX3Nn4ffqMYIgfkR15kG/0zL573vrGf6ne0qYU12sKe8TxjnEM9c0b+iB9XxmMb5pNXz/OMDf9FC/OBfWSBePhdBX9wJEvUs/Aa4ZiwXlsR6MwEJN4So8NfcN68EiZZFc77SYHt4k0ANwreLNDGT3Rs48UbJnXUs8Q4OIY9fcIONyD/iVS2jVve3GJ72MGfz4NtfT6pGzXs6NfnFPOmP/YZn1gtcpOmb88NvtDW1/Em7MeEuflPB/qJh+fhx+fCHH0dbTFRxU/boq+oj59gRJtUgd/Yf8TEJAM/niP77+uw7/uOGMzZ2/l65FitIC/E52Tn7eE3Xh/MzftO2cEv2vrfDdThp0hhe2/P2Kxj/3kMv8gLcf01gTqfB+Pz+vHt4RPXP0u0ga84DrT1W/ikX/pAXmxLZpERfFSLQX/07+Nin1zidRHt/DFsIzPkhh/kQ5++D7E9+8b6OF6s91v6rSVX+MU1iy2KZwkm5MP8U74Z1/eZecE+jy1ttBWBRhOQeEsQ5y8yblKVCs7HX/Z4o8ANI04UuBHwRoL2S5cuzfwwnj8PuxgDOfkbFH2lbkoxf+aX8glb3mDpE1vmxfP+Rkn/bOdzSPGhPc7Bt7fnubjlzRm2yJu55fWhGj+cj2PCMafv2G/mRH6xPfsP30UK+pLqP9rnTXqeFfOAD9qzD94OubDej2NejtX6wfOeU4wH3xxf2sEmcsdxUV60jX5jn2J+OI8ff63gOI4feSBP5oyYZMc6bH3O8EX+9JHa0g/saykc57x86atSHuiT7z/bVNuin9Xi5vnwHD071Fcq7c0V/W9PH2Mu8OPz5X61vKMfHYtARxOQeOtowvKfJICbZHsnhqRDVZZCAOInJc5LcV6HE4q3Olw0vSkFXJ7Yw+8EfsosFH/t9QvuEDCp9rhWiq40F+lTvbkiR+TqxTXjgj3uN9iqiEArEJB4a4VR7GJ94CSWmhC6WFdaLt16Vls6EkYriDfyiauDXN3piP/MYMUoTywyn2pbiirmyW29fmPcMnKFTwpO5smtVs8icR13ZQISb1159Lpo7hBtZTzi6KLd77RpU1R0xkmulcRbp70AlJgIiECXISDx1mWGqusnyscaEm6daywp2rBC0RmFG2hJvHWua0bZiIAINJeAxFtz+Su6CIiACIiACIiACNREQOKtJlwyFgEREAEREAEREIHmEpB4ay5/RRcBERABERABERCBmghIvNWES8YiIAIiIAIiIAIi0FwCEm/N5a/oIiACIiACIiACIlATAYm3mnDJWAREQAREQAREQASaS0Dirbn8FV0EREAEREAEREAEaiIg8VYTLhmLgAiIgAiIgAiIQHMJSLw1l7+ii4AIiIAIiIAIiEBNBCTeasIlYxEQAREQAREQARFoLgGJt+byV3QREAEREAEREAERqImAxFtNuGQsAiIgAiIgAiIgAs0lIPHWXP6KLgIiIAIiIAIiIAI1EZB4qwmXjEVABERABERABESguQQk3prLX9FFQAREQAREQAREoCYCEm814ZKxCIiACIiACIiACDSXgMRbc/krugiIgAiIgAiIgAjUREDirSZcMhYBERABERABERCB5hKQeGsuf0UXAREQAREQAREQgZoISLzVhEvGIiACIiACIiACItBcAhJvzeWv6CIgAiIgAiIgAiJQE4GaxNtLL62xOSf/wQYOuj3b4lhFBERABERABERABESgcQRqEm8UbhBvFHCNS1WRREAEREAEREAEREAEahJvFG1+K4QiIAIiIAIiIAIiIAKNI9DpxNsL/2+ZXX3tTTZ8/Azbesd97H/92/b25W13t1ETZtlPr7nZlr6wrHF0FEkEREAEREAEREAEOhmBTiPeHnviSes/ZIJ9btNv2Oc23c7+9ybb2+e/hJ8d7XOb7GCf23SHbPuFzXawAUNH2qN/fqyToVQ6IiACIiACIiACItDxBJou3tasfcdOOHWhjZg13LbebR/74r/vaP+6xY620eY97Iub97CNNv+WffHf8fOP4423/rp9edtNbdsdNrHTzzzZ3l6ztuMpKYIIiIAIiIAIiIAIdBICTRVvK99YZX2HHGZ7Duxjp98910Y+vMB2HnWgbfnVf7NtvrGpfWnL7W3jr/S0TbbcyTb+j51s462/bZtsvbV9eauN7Gs7fMl26Lm59RsywVasXNVJcCoNERABERABERABEehYAk0Tb2vXrrGjjx5vV/9ioj3+wI62ctGXbOmDW1rfvl+27bbfyP6zxxesx7c2sy22+bZt9Y1ettm2u9iXtt7NNtv2O7bbPrvb9GMm2+4H9LFNtt3L9ug73t5e804ppBYvXmx77723LVmyZD1/69ats5kzZ9pNN920Xn3qYPXq1TZ48GBbuHBhdhq+4LNI25Q/5ITYyCEWxEAsxOyo8uijj9r8+fPXi49cUDd+/Pjs57jjjiuUA/KcO3euLV26dIN0L7/88jZ/Md4GxqoQAREQAREQgW5KoGni7awFc23o4K3s1fu/Ziuv/6KtuPrztvyaL9gtszeyy6b/h/38xM2s/+Dv2td77mff3Glv22LbXW2Lr+5qW+2wl+248wE2YtRY2//AAbZNj+/a9r0OtQsu/lkpQ5gn0ioJqFICV3DSrNgQWhBlEGhRTEF83XvvvW1Z33bbbRvYtJ385w7F2bRp0zYQb7E9bPGjIgIiIAIiIAIisD6Bpoi3Pz/+lI08bJQtOK2PLbtnc3vlln+xZbdsZC/ftpE9ec2Wdvv5W9m9l25lfQ4eZFtu9VXr8dUtrGfPPWyvvfrYqNFH2LEjxtiIIWPsiIlTrff+/Wz3XfewoYOG2N+ee3793rXzCGLJr2ZR0KG+GaUZ4o0raxBVqZW3yAFi7thjj91AlNGO4mz58uUbrLylVuOq+aNfbUVABERABESguxFoing7/Ji5dsjAoXbSjEH2q4u/ZnOP6WcTh+xhP7t4kE0Ysottu9m/2MZf/JwN3Wdvu2jyGPvLxb3snCO/aYcOGGgD+g60cYfNsOGHjLVpE6baiN4H209OO9zmTJtuV5x9XinjR7HGx5xRPKE+Psb0NrE9xAnEoBd/2N9mm23afvy52AnvO57zuaTiMJdK/qPPeFxUvOFxKHJAwapZXK1DfZ5Q821hR/GI2CoiIAIiIAIiIAKfEWi4eFu5coUdNm6WDR48zo6YMNZmHzPW+vYZZof0H2HDBw63yQcfagsmDLa9v/FlO3HoaLtq+mS7/ZS+tvyuA2zSoP42bvg4mzhmmk0aMdlmjT/a5k2dZYfu28smDx5l04ZPsr+vWPlZ7+rYo2CC2IBQ8+LHCyaGoD1EBwUTxV8UVbD1K3t4J27QoEEbvGeX8s06bn0uMQ5smIvPn22LbouIN4g1rK6xcKUN8X1JibeUf7SD+JN48/S0LwIiIAIiIAL2/7d3rs9VVWcY/w/8YG2nH3ofHdsiSoPcJXITwiXBJORCSAIhOSEJCUkwJIDcCSGADIiAAl6KhVZUsIpGqJeoBVvtB4Hp2HaG0WFaYcSKUx3Rfno6bzoPs1iuk+wkh+QYnj2TWfus/a53vfu3M7N/s/bZCfpc3l7/wzFkZxZjTuF9aJi/CNUlZZidV4FxY6dh+qTpWFM8F3sqZ2HeXbdgcfpMbC/KwcMlafjstXuwriITtaUxlOWXoWZWPlYW1+HxDduwpqQM+1oaUVNcgVePtyfkulJ67IUAf5XNFSZOFv8IXS8AAA2ASURBVFXemNeXKZuHssecbN3c7GPr1tLX8maCxhcWokpWd+XNFUKes1oREAEREAERuJ4J9Lm8bduwFtULGhEr24q961uwqqoMqxcWoig3D3Pz89FcXoqd5Rm4d9jNqJ6Rht0ledheNA7/emYk1tQWoXpeDDlTpiIj9S4UTLkXG5YdxbFnnseH723BiroqbNv4QMKup0mTPdr0RcsVJk7mChYFjTLmShX33Uem3OfbqczJ1s3NPrZuLczt1sta3D6OjdqGVsb8sbbyFuWN0+7KW1Qp9OvRZxEQAREQAREYqAT6XN42L85BXVU9ymPrMWfqCDy553H85dhqlBdnIlZYjY31a/BQQx0aC3PQvLAMD5Zk4uX7R+PioVuwvWk81taXYFXtAjQuKEVl4Ry0VO7AKwcP4ML7rdi7eQHqYgsSdq3iPc50hYmTuYJFYepM3rojU25uzsfWraU/5c3q8R+dska3DcmbvZyg77y5lLQvAiIgAiIgAvEJ9Lm8rSovQayoCoXZc5E7ZSyqYpU4tKcOtZX1eOrRk3jx0Pt47fAR/Pnoarx6oAWPLCvDjtIx2FE5DOOGp6A4KxOz06ehZUk5mirmY2lsC3696Wn89c1WrF5agOxp2fHPtptH4slbSKZciepM3vxjUUoKzcdxoXldMQwJHcdGbaOsvFmunspbVKGLWq/iREAEREAERGAgE+hzeXu4eS/mzapHSd5cpI2fgkkjJ2Ny6lA8sG4rXjv8Jt54+h28+3wj/nlyJE69tBC1c3MxeshQDB8yHLf9ciQmpk7GtAlTkT55BlqaFqF1VRv27jqNVw49gMVVs5A5/drLG//oLiWJn/ndOF/QfIGycf4fAm5ra+v1Cwv2i+p/R88+hx79dueXOiRv9jfebMWMm8W4j02788KC5TDxc99OjSKCnFutCIiACIiACFxPBPpc3l5+6W3kz8zBjLsnomZeDVY2PYr8rEysKCvDriWNaH/6PbxzpA4fn/wu3j00BumjbsUvfp6CIYPHdMjb4EEjMGlcOoYNz8WSqkbsWnEauzc+j6d2rUBDRTFaNyTmz4XYL0G8lTc7Zite/K6aSVt7e/uVFxu6kjd/vOWJ9303izXZ41xsKX/uypvFUhQZx7oomhbT3S0kb9bHlxWsdcXN8ndX3myMCRtz2r42ERABERABERCBbxLoc3k7/d7fUJdbgeXp96IsuwTZd6cibfw9WFtageV5s3F8XxvefWo7zp9Iwx+fyEVDzp0YN3Qwpo8di5l3p2LooBTcMegODBtZgCXlC7Fz8RtorX0DB1tXYmNDBY6/fOybZ9nHPZS33ghTH5es6URABERABERABL4lBPpc3j795FPMzahF6T1ZKMyag9EpozB1XBr2NW7AI9XVOHD/Jryz4yFc/P0ynD4Yw8Fld2HqiFsw9o7BKJqQiimjRqFyjolfLd5+9gD+8/F5XPrkS5x5+xTWVq/FhY/O9zt6kzb377j1e0EqQAREQAREQAREYMAQ6HN5M3LrV+5EQU41imbXIz0thvS0UmxZtA7PrmjBE9VVeKGhEr8tT8f7j2djZ83tmHj7TzBjdApa6+Zi/5Z6PLi2OikvAB+l8pFmUhapokRABERABERABL7VBPpF3v7x9w9RkNuIwoKlyM2uRW5WFYpmVeDQys3YW1mO+6ZNQFNmBhZmjEfu+FHITk1B/uRRaF1ahj3NVVeAn/viHKpPVOI7+2/Arw7fhk2nNl45ph0REAEREAEREAERGIgE+kXeDORj+w5jzuwGFOTXIz+nCnmzYlhSuggHlq3Aurx0pI0cjvGDBmHRlBGozpmMH3//exhy663YtHZ9x3U4ceGtDmkzcXN/TOa0iYAIiIAIiIAIiMBAJdAteVt6/wnMzHrhyo997un29Vdf4cldO7GxaTHW31eL1XWVaK6rwo76pXhs8ULUp4/GnT/7AQrHpWDqsBTcdMONSB8+Cuc/ONsxZcbxaVdJm3221TcTOW0iIAIiIAIiIAIiMFAJdEvezp37HBQ4a+1zb7Yvv/gcv9mxGVuaFmFLUw0OrN6CA43rsb++HjtjWUj54U2Y+KMbsXBCKpoL8vBoTTH++/n///E8V9tspc1+7BEq+3pTk8aKgAiIgAiIgAiIQDIT6Ja8XYsT+fqry2h/8Qi2LV+E51avx66qKizPzUNzzkRMuu2nyB85DHsqYthTkYnfLZ+EV44e6SiDK2+22uY/Qr0WdSqnCIiACIiACIiACCQDgX6XN0L46NwHeG7XVqzMmYmc0WNRMyEFscljMH/CBGybm4P9DXloqc5ALC+jY4i9nMCVNr9lTrUiIAIiIAIiIAIiMNAIJI28Eexn/76Ik6+/hb3Ny1CZn4vyKWOwIzYNRx/ZilN/ehOfXrzQEWqPSX2B4yocc6kVAREQAREQAREQgYFGIOnkbaAB1vmIgAiIgAiIgAiIQCIJSN4SSVO5REAEREAEREAEROAaE5C8XWPASi8CIiACIiACIiACiSQgeUskzS5yXbp0qeN/nibbP6y3eq7nf+l19uzZjvO/+eabYf/iLJHb5cuXUV9fj82bNycyrXKJgAiIgAhcxwQkb4GLT8mKdyPv6nggZUcXx3VX3vg/U00u+JNI2UqUvFGCunt+8Xgluj9UX6jPeGdnZ8OuV283yVtvCWq8CIiACIiAT0Dy5hMBOm7advPub3mjWNjKjUmAu+3evRt2PBHb9SxvIVEL9fWUs+Stp+Q0TgREQAREIB4ByVuADFfI+lPeuqohUHaPuxIlbz0uoB8HJlLUQqcheQtRUZ8IiIAIiEBvCEjeAvS6EqeujgdSdnRxXJTHivYdqdCKW7zcvemXvCXmEWnoGkjeQlTUJwIiIAIi0BsCkrcAPUpW1JW3ePH+jZtxJkuWm99f878o78YFygt2cUy8nBzkx9nj4ba2tuALCyaQbr6upJOPed0423dzxPsumc+K9VprOdzv+IXOwfq4WR1ZWVk4c+ZMhwCTr1ufn8NiWFu81bgoPPzrun//fr2wwAujVgREQAREICEEJG8BjLyxXyt5mz9//lXfp6PgcD5fVgIlXtXlj7eDFBX3LUf2cR6L41hXjihS7sof46yNtzE/Y6x189o4kxlXtNxcVhcFyu13VyE5h3sOdtwdZzEmb8bZ9rlxLOuz/tCcfl9UHn4dHGdi6F4H1qNWBERABERABHpCQPIWoEZ5c1eMQvsUCMbzM1Py5s0bN+P4mXHWusIQkh431t3nHP7cFuPnsXnjze1Klj+O89lYV+jYz9aXI6ups3iOY+uPt34yo3CFamAMGTAPP3eW32Jc8bNYvy8KD5vThNFad2NtIe5unPZFQAREQAREICoByVuAFG+4/s2fof5x/zPjKFa8cTOOIsI4a11BcPfdmNB+PGmwWM5n58H9rua2cVYva3bn9KXGPWb7lCbOYW13V51sXlf4LAflKt45+Jz9OlhnqD90Tn5fFB42xq2bc/q1sV+tCIiACIiACPSUgOQtQI6SYDfk0OYf9z9zjH/jZhzlhnHWWh9Xv0KS4ca6++44t9/2OZ+dR2c53RysObTSaH0UKX8u+xyag31djWW+UC0USTdXqD43LrQKxvE2Bzdf1Kzf7YvKw5dO5ud41sZ+tSIgAiIgAiLQUwKStwA5V3oCh6+SIjvOG7Qve+znjZt5XXlgfuujGPnjGBNqTUhComKxnM/q4n68uSmONs7qZc2hOeP1heSIsTwndx4ec1vWaTX758ZjoXNwc/jjeCxUnytqjPP7ovCwMVp5I0G1IiACIiAC15KA5C1Al5JgN+TQ5h+nmPjCQ1lgP8fxs5vb+tybvwmKrS51JSrMGarVxlKW4tVoNdjcjLPPvry4dXa2z/ONVzNrjXecuSlCfFPTarets3PgWGsTLW9ReLis/VqMbeiau3HaFwEREAEREIGoBCRvAVKUjJAQWXjouMW6skXRsD7euDnOjbN8/liWxH6/Dsu9atWqDkmxWBMHy+nGUaTcvlAc+1x5Y52uTHIei4+3cU7G2J8gsT5u1u/Ow36/ZR6fk8WxXve8rN99i9XGh1YjmZf12TjLwxVP1uH3ReHB6+3mYl/od4C/E5xTrQiIgAiIgAhEJSB5C5DizdoXBIbGO243ZLtR249JCv/OGG/UHNfe3t6xyubGupLDeazlGMay9cWKYsLj1rqSwpyUH8ZZbdbnS5UrHoz152ROtqyB8xo/jrXWn4Pj/JZzuyLkxnAeN7d7rex4IuXN5mZN7pw+Dz+ms98B/k6456V9ERABERABEYhCQPIWhZJiREAEREAEREAERCBJCEjekuRCqAwREAEREAEREAERiEJA8haFkmJEQAREQAREQAREIEkISN6S5EKoDBEQAREQAREQARGIQkDyFoWSYkRABERABERABEQgSQhI3pLkQqgMERABERABERABEYhCQPIWhZJiREAEREAEREAERCBJCEjekuRCqAwREAEREAEREAERiEJA8haFkmJEQAREQAREQAREIEkISN6S5EKoDBEQAREQAREQARGIQkDyFoWSYkRABERABERABEQgSQhI3pLkQqgMERABERABERABEYhCQPIWhZJiREAEREAEREAERCBJCPwPWFOsr5w1hboAAAAASUVORK5CYII=;" vertex="1" parent="1">
          <mxGeometry x="720" y="660" width="343" height="399.71" as="geometry" />
        </mxCell>
      </root>
    </mxGraphModel>
  </diagram>
</mxfile>
